<?xml version="1.0" standalone="no"?>
<!DOCTYPE svg PUBLIC "-//W3C//DTD SVG 1.1//EN" "http://www.w3.org/Graphics/SVG/1.1/DTD/svg11.dtd" >
<svg xmlns="http://www.w3.org/2000/svg" xmlns:xlink="http://www.w3.org/1999/xlink" version="1.1">
<metadata>
Created by FontForge 20170731 at Tue Dec 10 02:07:09 2019
 By Aleksey,,,
Copyright (c) 2019 by Creatype Studio Co.. All rights reserved.
</metadata>
<defs>
<font id="Gistesy" horiz-adv-x="323" >
  <font-face 
    font-family="Gistesy"
    font-weight="400"
    font-stretch="normal"
    units-per-em="1000"
    panose-1="0 0 0 0 0 0 0 0 0 0"
    ascent="800"
    descent="-200"
    x-height="256"
    cap-height="752"
    bbox="-281 -715 1198.12 924"
    underline-thickness="50"
    underline-position="-150"
    unicode-range="U+000D-FB06"
  />
<missing-glyph horiz-adv-x="259" 
 />
    <glyph glyph-name="uniE225" unicode="tt" horiz-adv-x="421" 
d="M84 -121q7 2 14 10.5t13 19t11 21t8 16.5q25 54 48 120t42 123q14 42 28 83.5t28 84.5q2 7 11 31.5t19 52.5t18 52t8 29q-6 0 -25 -3t-44 -8t-52.5 -11t-50.5 -11t-39 -9t-18 -6q-4 -4 -9.5 -36.5t-11 -73t-10 -78.5t-4.5 -53q-2 -19 -4 -41.5t-4 -41.5q-2 -16 -3.5 -57
t0 -85.5t7.5 -81.5t20 -47zM112 511q11 5 41 12t65 13t67 11t45 7q11 2 13 2.5t5 8.5l28 88q5 15 8.5 23.5t15.5 8.5t13 -13t-2.5 -32t-9 -40t-5.5 -37q11 0 32.5 2.5t48 6t55 6t52.5 2.5q25 0 42 -3.5t20 -14.5q5 -16 -8 -21t-26 -5v11q-50 0 -99 -3.5t-99 -10.5
q-13 -1 -19 -2t-7.5 -2.5t-1 -3t-0.5 -4.5q-4 -22 -7.5 -52.5t-6.5 -62.5t-5.5 -62.5t-4.5 -53.5l-4 -345q0 -14 1.5 -23t2.5 -21q0 -40 3 -67.5t3 -65.5q0 -8 -10 -8q-3 0 -4 1q-10 3 -14 12q-3 6 -6 24.5t-4.5 39.5t-2.5 40t-1 27l-4 189q-2 12 -2 43.5t1 68.5t3 71.5
t3 52.5l13 131q-2 -3 -6.5 -14.5t-9.5 -25t-8.5 -25.5t-4.5 -15q-8 -20 -14 -40.5t-14 -41.5q-29 -85 -55 -160t-59 -159q-4 -10 -8 -19.5t-7 -19.5q-5 -10 -12 -25t-16 -29.5t-20 -24.5t-25 -10q-20 0 -32 29.5t-18 67t-8 73t-2 47.5q0 60 3 114.5t9 113.5l18 126
q1 11 3.5 19.5t2.5 20.5q-21 -5 -54.5 -16t-68 -25.5t-65 -30t-44.5 -28.5l-6 -6t-8 -3q-13 0 -13 14q0 16 29 34.5t67 35.5t74 30t50 17q24 8 33.5 10.5t13.5 7t6 15.5t11 37q4 10 9.5 24.5t17.5 14.5t13.5 -9.5t-0.5 -23t-6 -27t-4 -22.5z" />
    <glyph glyph-name="s_t" unicode="st" horiz-adv-x="485" 
d="M40 380q0 15 25 34t58 37t64.5 32t44.5 19l163 61q3 3 9.5 15t13 26.5t12.5 28.5l9 21q5 12 7 15t13 9q14 -7 15.5 -15t-2 -19.5t-8.5 -27.5t-5 -39l70 8q17 1 37 2t35 3q2 0 5 0.5t7 0.5q15 0 34 -1.5t27 -3.5q24 -4 34 -14t9 -19.5t-10.5 -17.5t-25.5 -8l3 23
q-10 5 -27 7t-38 2q-39 0 -80.5 -4.5t-60.5 -8.5q-12 -2 -17.5 -3t-8.5 -11q-3 -12 -6.5 -45.5t-6 -78.5t-5 -95.5t-4.5 -96t-2.5 -81t-0.5 -50.5q0 -13 1.5 -21t1.5 -22q0 -26 1.5 -47t1.5 -46l6 -89q1 -17 3 -28.5t3.5 -20t0.5 -15t-7 -14.5q-15 1 -20 10t-8 23
q-2 11 -4 25t-2 26q-2 29 -3.5 55t-3.5 57q0 11 -1 14.5t-1 14.5v87q-1 11 -2 14.5t-2 14.5q-2 73 1.5 145.5t7.5 145.5q1 8 1.5 18t2.5 20q2 16 5 37.5t3 37.5q-8 -2 -9.5 -5.5t-5.5 -11.5l-163 -310q-6 -10 -10 -20q-16 -29 -30.5 -58t-29.5 -58q-5 -11 -10 -20t-10 -20
q-3 -7 -7.5 -27.5t-10.5 -42t-13.5 -38t-18.5 -16.5q-12 0 -15.5 6t-2.5 15t5.5 19.5t8.5 20.5q4 11 10 23t6 23q0 18 -2.5 34t-10.5 31q-11 20 -34 38.5t-39 39t-15.5 45t36.5 56.5q12 11 25.5 15.5t24.5 4.5q13 0 21 -5t8 -13l-3 -21q-5 -1 -6.5 -2t-8.5 -1q-2 0 -3.5 2.5
t-6.5 2.5q-3 0 -9 -3t-16 -12q-19 -18 -18 -31t12.5 -26t28.5 -28.5t30 -37.5q10 -16 9.5 -22t8.5 -12q2 8 9 23.5t16 32.5t18 33.5t14 26.5q8 14 14.5 28.5t14.5 29.5l147 280q-6 0 -18 -4t-25.5 -9t-26.5 -9.5t-19 -7.5q-22 -8 -41.5 -16.5t-39.5 -16.5q-7 -3 -26.5 -13
t-41 -21.5t-39 -22.5t-22.5 -18q-5 -8 -5.5 -12t-7.5 -4q-3 0 -17 3q-1 5 -2 7t-1 8z" />
    <glyph glyph-name=".notdef" horiz-adv-x="259" 
 />
    <glyph glyph-name="uni0000" horiz-adv-x="0" 
 />
    <glyph glyph-name="uni0000" horiz-adv-x="0" 
 />
    <glyph glyph-name="uni000D" unicode="&#xd;" horiz-adv-x="250" 
 />
    <glyph glyph-name="space" unicode=" " horiz-adv-x="259" 
 />
    <glyph glyph-name="exclam" unicode="!" horiz-adv-x="173" 
d="M42 18q0 17 6 46t14.5 60.5t17.5 60t14 43.5q17 49 31 96.5t33 99.5l26 60q17 29 22 40t15 11q2 0 12 -2q4 -18 -3.5 -34t-16.5 -42l-24 -65q-31 -79 -60.5 -162t-52.5 -164q-9 -35 -10.5 -48.5t-12.5 -13.5q-6 0 -9 1zM26 -111q0 11 7.5 18t15.5 7q7 0 11 -6t2 -19
q-5 -26 -21 -26q-15 0 -15 26z" />
    <glyph glyph-name="quotedbl" unicode="&#x22;" horiz-adv-x="234" 
d="M64 705q-9 2 -10.5 7.5t1.5 11.5t9 10.5t12 4.5q11 0 16.5 -7.5t5.5 -13.5q0 -10 -8.5 -37.5t-20.5 -56t-25.5 -50.5t-22.5 -22q-15 0 -8 13t15 28q5 9 11 24t11.5 31.5t9.5 32t4 24.5zM164 705q-9 2 -10.5 7.5t1.5 11.5t9 10.5t12 4.5q11 0 16.5 -7.5t5.5 -13.5
q0 -10 -8.5 -37.5t-20.5 -56t-25.5 -50.5t-22.5 -22q-15 0 -8 13t15 28q5 9 11 24t11.5 31.5t9.5 32t4 24.5z" />
    <glyph glyph-name="numbersign" unicode="#" horiz-adv-x="452" 
d="M248 146q12 23 22.5 48t22.5 48h-29q-9 0 -13 -1t-15 -1q-1 -4 -9 -19t-17 -31.5t-17 -31t-9 -18.5q2 1 11 2t19.5 2t20 1.5t13.5 0.5zM223 262q21 41 42.5 82t48.5 77q19 25 33 25q10 0 10 -13q0 -6 -5 -11l-9 -9l-66 -105q-5 -7 -14 -22t-11 -21q6 0 13 0.5t14 0.5
q16 0 23 -4q6 11 18 34t26.5 47.5t29 44.5t24.5 23q2 1 5 1q5 0 7.5 -4.5t0.5 -9.5l-76 -138q13 0 25 -2.5t23 -5.5q18 -5 26 -15.5t-1 -20.5q-4 -4 -5 -4q1 0 -2 3q-5 2 -5.5 3t0 2.5t0.5 3.5t-4 5q-3 3 -12.5 5t-20 3.5t-20.5 2t-16 0.5l-45 -91q17 0 36.5 -0.5t32.5 -3.5
q23 -6 28.5 -19.5t-6.5 -13.5q-3 0 -9 4t-11 6q-7 2 -15.5 2.5t-18.5 0.5q-13 0 -25.5 -0.5t-23.5 -0.5q-17 -32 -32 -65t-32 -67l-50 -98q-8 -14 -14 -18.5t-11 -4.5q-11 0 -11 9q0 10 1 8t7 3q5 4 6.5 7.5l4.5 10.5l43 89q4 8 7 16t7 16t6.5 14.5t7.5 14.5l26 60
q-9 0 -14.5 -0.5t-14.5 -2.5q-16 -2 -24 -2.5t-11.5 -2t-4.5 -4.5t-4 -10l-33 -63q-7 -13 -11.5 -23t-14.5 -13q-2 3 -3 4t-1 5q0 2 6 16t14 31t15 32.5t10 21.5q-19 -1 -39.5 -5.5t-32.5 -4.5t-12 7q0 9 13 15t30 10t33.5 5.5t23.5 1.5l38 76q4 7 7 11.5t5 12.5
q-17 0 -38 -5t-36 -9l-55 -14q-5 -2 -8 -4t-6 -2q-6 0 -8.5 9.5t19.5 20.5q30 16 69 22.5t77 6.5z" />
    <glyph glyph-name="dollar" unicode="$" horiz-adv-x="574" 
d="M295 -16q11 3 20.5 14t14.5 20q9 14 12 30t3 34q0 12 -3.5 27.5t-9.5 29.5t-14 26t-18 17q0 -15 -1.5 -25.5t-1.5 -24.5q1 -13 1 -25v-25t-1.5 -23.5t-1.5 -24.5v-50zM273 234v43t0.5 75.5t1 75.5t1.5 42l6 113q0 20 1.5 32.5t3 20.5t1 11t-6.5 3h-5q-43 -5 -81 -25
t-67.5 -49.5t-50 -65.5t-30 -72.5t-6.5 -71t20 -61.5q11 -16 26 -25.5t33 -14.5t38 -7.5t39 -4.5q16 -2 26 -4t17.5 -4.5l15 -5t17.5 -5.5zM293 687q0 8 3.5 36t10.5 58t16 54t20 24q12 0 8 -18l-19 -161q33 -7 69.5 -33.5t65.5 -64.5t45.5 -83.5t8.5 -91.5q-5 -29 -8 -37.5
t-11 -8.5q-5 0 -9 1q-4 19 -4 37t-2.5 38.5t-10.5 45t-29 55.5q-8 12 -22 29t-31 33.5t-34.5 28.5t-32.5 13q0 -7 -0.5 -13t-1.5 -14l-14 -183q-1 -11 -2.5 -26t-1.5 -26q-1 -7 -0.5 -14.5t0.5 -14.5q-4 -33 -5.5 -66.5t-1.5 -66.5q19 -12 29.5 -23.5t22.5 -31.5
q23 -38 22.5 -82.5t-24.5 -80.5q-14 -20 -26 -29t-31 -19v-184v-30q0 -20 -2 -20.5t-5 -2.5q-2 -1 0.5 -1.5t-5.5 1.5q-5 2 -6.5 6.5t-1.5 8.5q-3 20 -3 45v45q0 17 -1 29.5t-1 29.5v69q-16 0 -29 9.5t-23 23.5t-16 30.5t-8 30.5q-2 9 2.5 24.5t12.5 15.5t8 -3t-1.5 -10.5
t-1 -20t9.5 -30.5q7 -13 18 -28t28 -15q0 60 1 115t1 115q-7 1 -10.5 3t-9.5 4q-15 5 -32.5 8.5t-34.5 6.5q-29 4 -49 6t-43 11q-48 19 -65.5 61.5t-17.5 92.5q0 32 10.5 65t28 64.5t40.5 58.5t48 45q33 24 74.5 40t83.5 16z" />
    <glyph glyph-name="percent" unicode="%" horiz-adv-x="402" 
d="M27 -67q-8 6 -8 11t3 16q4 14 15.5 44.5t27.5 69t34.5 81t35.5 80t30.5 67t19.5 41.5l24 50q28 61 57 122t67 118q5 7 13 19.5t18 24.5t20.5 21t19.5 9q6 0 6 -5t-2.5 -11t-6 -11.5t-4.5 -7.5q-11 -16 -21.5 -33.5t-19.5 -34.5l-78 -138l-34 -72t-35 -71l-156 -346
q-8 -21 -11 -31t-15 -13zM73 659q0 14 7 20.5t14 6.5q14 0 30.5 -13t27 -34.5t9.5 -48.5t-24 -56q-11 -14 -25 -24t-28 -10q-20 0 -34 21q-10 15 -10 25.5v30.5q0 7 3.5 18.5t8.5 22t11.5 18.5t12.5 8q12 0 13.5 -5t-0.5 -11q-3 -8 -11 -17q-15 -30 -11 -46.5t15 -33.5
q17 9 31.5 25t14.5 39q0 20 -7 38t-24 29q-8 -2 -9 -3.5t-3 -1.5h-4.5t-7.5 2zM276 24q8 6 12 18t3.5 24t-5 22t-13.5 12q0 -14 -2.5 -36t5.5 -40zM234 54q0 10 2.5 28t8 35.5t14.5 30.5t21 13q10 0 11.5 -4t-0.5 -9t-5.5 -11t-3.5 -10q21 -2 35 -27t14 -48q0 -24 -15 -46.5
t-35 -25.5q-14 0 -23 7t-14.5 18t-7.5 24t-2 25z" />
    <glyph glyph-name="ampersand" unicode="&#x26;" horiz-adv-x="575" 
d="M68 120q0 25 11.5 57t29 64.5t38 62t39.5 49.5q12 14 17 19.5t6 9.5t0.5 7.5t0.5 12.5q2 14 7.5 28.5t12.5 26.5q14 23 37 43.5t48.5 36.5t50.5 25.5t42 9.5q24 0 24 -19q0 -10 -5 -17t-12 -15l-39 -35q-26 -22 -52 -42.5t-51 -43.5q-8 -8 -17 -18.5t-17 -15.5
q10 -42 31 -78.5t51 -66.5q5 -4 6 -6t5 -6l57 -54q6 4 25 21.5t40 37t38 35t20 15.5q9 0 9 -9q0 -6 -4.5 -10t-7.5 -8l-58 -60q-5 -5 -8 -7t-8 -7q-6 -5 -14.5 -14t-13.5 -15q5 -3 17 -13t25 -23l25 -25t17 -19l20 -21q1 -1 8.5 -7.5t14 -14t8.5 -14t-7 -6.5
q-4 0 -20.5 11.5t-35.5 26.5t-36.5 30t-24.5 22l-36 30q-21 -18 -33.5 -31t-38.5 -33q-29 -21 -63.5 -39.5t-70.5 -18.5q-32 0 -61 19q-30 20 -38.5 48.5t-8.5 63.5zM180 23q19 0 39 7t39 18t36.5 24t30.5 24q6 5 19.5 17t17.5 17q-6 8 -21.5 22.5t-23.5 23.5l-32 36
q-9 9 -21 26t-22.5 35.5t-18.5 36.5t-9 29q-18 -21 -38.5 -48t-37.5 -57t-28.5 -60.5t-11.5 -59.5q0 -38 17.5 -64.5t52.5 -26.5h12zM282 447q17 16 37 32t38 30l28 25l5 3l4 5q-19 -2 -44 -14.5t-48 -31t-40 -40t-19 -42.5z" />
    <glyph glyph-name="quotesingle" unicode="'" horiz-adv-x="158" 
d="M87 705q-9 2 -10.5 7.5t1.5 11.5t9 10.5t12 4.5q11 0 16.5 -7.5t5.5 -13.5q0 -10 -8.5 -37.5t-20.5 -56t-25.5 -50.5t-22.5 -22q-15 0 -8 13t15 28q5 9 11 24t11.5 31.5t9.5 32t4 24.5z" />
    <glyph glyph-name="parenleft" unicode="(" horiz-adv-x="185" 
d="M71 -137v44q0 12 1.5 19t1.5 19q-1 46 1.5 79.5t4.5 77.5q1 18 3.5 38t3.5 37q4 65 14 134t26.5 137.5t38.5 134.5t49 125q6 14 21.5 45.5t35 64.5t40.5 58t37 25q5 0 10.5 -2t5.5 -9q0 -12 -2 -12t-8 -8l-38 -64l-3.5 -7l-3.5 -7t-3.5 -6t-4.5 -7q-40 -81 -70 -158
t-51.5 -155.5t-37 -160.5t-26.5 -172l-12 -154q-2 -26 -3.5 -58t-2.5 -65.5t0 -66t4 -58.5q3 -29 5.5 -41.5t5 -17.5t4.5 -7t3 -9l-5 -6q-4 -2 -3 -2q-14 6 -18.5 14t-8.5 25q-8 30 -10 56.5t-2 58.5q-1 10 -2 14.5t-1 14.5v32z" />
    <glyph glyph-name="parenright" unicode=")" horiz-adv-x="199" 
d="M206 900q0 5 4.5 8t9.5 3q2 0 2.5 -0.5t2.5 -0.5q16 -3 26.5 -17.5t16.5 -28.5q11 -26 15.5 -54t4.5 -56.5t-3 -57t-6 -55.5q-4 -29 -14 -67.5t-23 -79t-26 -78.5t-23 -65q-38 -103 -75.5 -205t-77.5 -204q-7 -17 -13 -33.5t-14 -33.5q-7 -18 -13 -34t-13 -33l-27 -66
q-4 -9 -12 -27.5t-18 -38t-21.5 -34t-21.5 -14.5q-13 0 -11.5 9t7.5 18q5 7 15.5 29.5t22.5 53t25.5 65t25.5 66t21 56.5t13 36l119 332q6 18 12 34.5t12 33.5q5 17 10 33t11 34q9 27 21 65t22.5 79t17.5 80t7 68v38.5t-2.5 46t-7.5 44.5t-15 33q-5 7 -6 7t-1 11z" />
    <glyph glyph-name="asterisk" unicode="*" horiz-adv-x="240" 
d="M101 458q0 10 1 13t1 12q1 20 3.5 35.5t16.5 23.5q6 -3 10 -6t4 -12l-2 -48q6 5 10 9.5t13 4.5q4 0 8.5 -1t4.5 -8t-4 -11.5t-10 -8t-12 -7.5t-10 -10q8 -2 17 -6.5t16 -7.5q17 -7 19 -9.5t0 -12.5q-20 0 -30.5 6t-26.5 8l-4 -75q1 -10 1.5 -10t-1.5 -11q-2 0 -4.5 -1
t-5.5 -1q-9 0 -13 15q-1 5 -2 15.5t-2 22t-1 22v16.5q-6 -2 -13.5 -8.5t-14.5 -11.5q-9 -5 -13.5 -8t-8.5 -3t-9 4q1 6 7 12t14 12t16.5 12.5t12.5 13.5q-4 2 -10.5 4t-13.5 5t-12 7t-5 9q0 9 11 9t24.5 -6t17.5 -8z" />
    <glyph glyph-name="plus" unicode="+" 
d="M139 253q1 9 6 16t16 7q10 0 12 -12t1 -27.5t-4 -29.5t-4 -18q6 2 17.5 4t24.5 3.5t24.5 3t17.5 1.5q20 0 22.5 -6t0.5 -17q-5 -1 -8 -1q-2 0 -1.5 0.5t-4.5 0.5q-13 0 -29.5 -3.5t-29.5 -5.5q-15 -3 -23 -4.5t-11.5 -3.5t-4.5 -5.5t-2 -11.5q-3 -14 -6 -29t-5 -29
q-2 -16 -4.5 -27.5t-13.5 -11.5q-2 0 -2.5 0.5t-2.5 0.5q-1 5 0.5 20t4 32t4.5 32.5t2 22.5q-20 -2 -31.5 -6.5t-27.5 -4.5q-4 0 -8.5 0.5t-9.5 1.5q-3 14 1.5 19t32.5 11q11 2 24.5 5.5t23.5 3.5q1 7 2 16t2 16q2 8 2.5 16t2.5 16h-5q-2 0 -2 0.5t-4 3.5z" />
    <glyph glyph-name="comma" unicode="," horiz-adv-x="163" 
d="M72 75q-9 2 -10.5 7.5t1.5 11.5t9 10.5t12 4.5q11 0 16.5 -7.5t5.5 -13.5q0 -10 -8.5 -37.5t-20.5 -56t-25.5 -50.5t-22.5 -22q-15 0 -8 13t15 28q5 9 11 24t11.5 31.5t9.5 32t4 24.5z" />
    <glyph glyph-name="hyphen" unicode="-" horiz-adv-x="354" 
d="M77 152q-5 0 -10.5 4t-5.5 10t7.5 12t28.5 10q2 0 17.5 2t39 4t50 3.5t48.5 1.5q23 0 37.5 -2.5t14.5 -7.5q0 -6 -6 -10t-14.5 -6.5t-18 -4t-17.5 -3.5q-7 -1 -33 -3.5t-55 -4.5t-54 -3.5t-29 -1.5z" />
    <glyph glyph-name="period" unicode="." horiz-adv-x="162" 
d="M54 29q0 15 9.5 22.5t20.5 7.5t18.5 -7t5.5 -21t-10 -21t-18 -7t-18 7t-8 19z" />
    <glyph glyph-name="slash" unicode="/" horiz-adv-x="246" 
d="M-50 -134q0 19 14.5 60.5t34 88t39 90t29.5 65.5q3 9 6 16t7 16q29 60 59 128t59 125l76 157q5 8 8 14.5t8 14.5q9 18 24.5 46t33.5 57.5t36 55.5t32 40q10 11 17 15.5t12 4.5q8 0 10 -10t-1 -18q-4 -11 -20 -39.5t-35.5 -61.5t-38 -64.5t-27.5 -48.5l-49 -94
q-5 -8 -8.5 -15t-8.5 -16q-17 -32 -32 -63.5t-32 -63.5l-153 -325q-14 -34 -28 -65t-29 -69q-11 -28 -14.5 -46t-15.5 -18q-11 0 -12 8t-1 15z" />
    <glyph glyph-name="zero" unicode="0" horiz-adv-x="423" 
d="M143 582q-12 -7 -26.5 -23t-29 -35.5t-26.5 -39.5t-19 -35q-4 -10 -4.5 -12.5t0.5 -11.5q-12 0 -13 6t1 15q5 19 15.5 39t24.5 39.5t29 37t28 31.5l36 34q20 15 41.5 24.5t43.5 9.5q16 0 31 -6t30 -20q17 -16 28 -40.5t18.5 -53t12 -60t7.5 -60.5q5 -42 4.5 -89.5t-7 -95
t-20.5 -90.5t-38 -75q-19 -26 -46 -48.5t-62 -22.5q-33 0 -58 21.5t-39 49.5q-22 42 -30.5 86t-7 89t9.5 90t17 88zM90 248q0 -21 5.5 -57t17.5 -71.5t32 -61t49 -25.5q40 0 75 58q26 42 39 97t16.5 113.5t-2 115.5t-17.5 104q-5 20 -16 50t-25 44q-14 13 -37 13
q-18 0 -32 -7q-14 -6 -27.5 -32t-25.5 -62t-21.5 -77.5t-16 -81t-10.5 -72t-4 -48.5z" />
    <glyph glyph-name="one" unicode="1" horiz-adv-x="143" 
d="M35 468q0 44 4 87t13 85q5 19 8 27t13 13l8 -4t4 -7q0 -19 -0.5 -40.5t-3.5 -38.5l-3 -65q0 -34 -1 -65.5t-1 -66.5q0 -103 0.5 -198t3.5 -198q0 -16 2 -25t3 -14t0 -9t-7 -9q-14 4 -18 18t-6 31q-2 8 -2.5 17.5t-0.5 15.5l-9 169q-3 32 -1 71t-3 69q-2 17 -1 34t-1 34
t-1.5 34.5t0.5 34.5z" />
    <glyph glyph-name="two" unicode="2" horiz-adv-x="433" 
d="M98 484q-2 0 -3 -0.5t-2 -0.5q-8 0 -11.5 6t-4 15t2 19t5.5 17q9 20 24.5 41.5t35 39t42 28.5t46.5 11q32 0 53.5 -23.5t26.5 -67.5q2 -17 2.5 -22.5t0 -7.5t-1 -4.5t-1.5 -14.5q-3 -59 -16 -126.5t-34.5 -133.5t-50 -127.5t-63.5 -108.5q15 0 24 1.5t23 1.5h10
q26 0 66 1t78 1q25 0 45 -1t31 -3l12 -4t4 -9q-1 -5 -10 -5q-58 0 -115.5 -1.5t-115.5 -3.5q-11 -1 -26 -2t-26 -3q-15 -1 -27.5 -4t-20.5 -3q-6 0 -10.5 8t11.5 20q14 11 29.5 41.5t29 67t25 71.5t17.5 54q11 32 23.5 77.5t22 95t13 97t-4.5 81.5q-6 25 -33 25
q-26 0 -59.5 -24.5t-55.5 -69.5q-7 -13 -9.5 -20t-3 -11t0.5 -8t1 -11z" />
    <glyph glyph-name="three" unicode="3" horiz-adv-x="373" 
d="M77 609q0 8 7.5 17.5t18 19t20.5 17t16 11.5q17 11 44.5 22.5t54.5 11.5q33 0 50 -23q18 -25 16.5 -61.5t-11.5 -74.5t-25 -73.5t-24 -58.5q-6 -15 -13.5 -28.5t-15.5 -27.5q8 1 20.5 6.5t26.5 8.5t24 3q32 0 51 -18.5t23 -47.5t-7 -64t-38 -69q-9 -12 -29.5 -31.5
t-47.5 -41.5t-57 -45t-58 -41.5t-51.5 -30t-36.5 -11.5t-16 11q-2 7 1 9.5t8.5 3t12.5 1t13 4.5l63 43q42 32 87.5 68.5t78.5 78.5q11 16 21.5 32.5t16.5 34.5q14 42 3 63.5t-42 21.5q-23 0 -53 -12q-6 -2 -16 -7.5t-19 -5.5q-12 0 -16 12q-5 12 2 30t12 29l31 74
q4 9 15 36.5t20 59.5t12 61.5t-10 42.5q-10 10 -26 10q-15 0 -32 -6.5t-33 -15.5t-29.5 -19t-21.5 -16q-14 -11 -19.5 -19t-10.5 -8q-11 0 -11 13z" />
    <glyph glyph-name="four" unicode="4" horiz-adv-x="363" 
d="M20 259q0 5 9.5 22.5t21.5 38.5t23.5 39.5t15.5 24.5q5 8 9.5 16t8.5 16l45 79q2 5 4 7t4 7l106 188q2 4 7.5 13t11.5 18t11.5 15.5t9.5 6.5q2 0 4.5 -0.5t6.5 -1.5q1 -4 1.5 -5t0.5 -6q0 -8 -11.5 -33.5t-30 -59.5t-41.5 -74t-45 -77t-41 -67.5t-30 -46.5q-5 -8 -16 -24
t-22.5 -33t-22 -32.5t-13.5 -21.5q52 13 103.5 20t105.5 7q3 30 5 61t7 60q4 30 10 56q5 19 6.5 29.5t10.5 16.5q14 -3 14 -20l-4 -71q-2 -17 -4 -32.5t-4 -32.5l-7 -66q-5 -35 -6.5 -66.5t-4.5 -66.5q-1 -14 -3 -32.5t-1 -33.5l-4 -69q-2 -13 -0.5 -22.5t2.5 -16.5t-1 -11
t-11 -6q-12 8 -13 26q-2 20 -2.5 36t0 31t1 30.5t0.5 33.5q0 11 1 16t2 14q0 17 1 30.5t1 30.5q0 11 1 16t1 14q1 10 1.5 16t0.5 13q-15 -1 -38 -3.5t-47.5 -6t-47 -7.5t-37.5 -8q-17 -4 -27.5 -7.5t-22.5 -3.5q-4 0 -14 2z" />
    <glyph glyph-name="five" unicode="5" horiz-adv-x="303" 
d="M47 678q4 8 6.5 10t4.5 2.5t5.5 1.5t9.5 8q6 6 9 6q4 0 7.5 -4t14.5 -4h2q25 1 43 3t38 2q19 0 44 -3q24 -3 28 -15q-8 -6 -20 -6q-4 0 -9 0.5t-12 0.5q-12 0 -29.5 -0.5t-35.5 -1.5t-35 -2.5t-28 -4.5l-9 -66q-3 -16 -8.5 -48t-10 -66t-6 -63.5t3.5 -41.5
q29 16 54.5 27.5t59.5 11.5q17 0 30.5 -9t24 -22.5t17.5 -29.5t11 -31q9 -36 4 -69.5t-19 -65t-33 -60.5t-38 -55q-10 -14 -18.5 -25.5t-18.5 -24.5q-3 -4 -5.5 -5.5t-5.5 -6.5q-5 -6 -15.5 -16t-20.5 -10q-6 0 -10 5q-7 10 -2 13t6 4q10 6 11.5 8t9.5 13l54 79q5 8 11 15
q14 23 25 42.5t19 39.5t12 42t4 51q0 14 -4 29t-11.5 28t-18 21t-23.5 8q-19 0 -34.5 -6.5t-29 -14t-25.5 -14t-23 -6.5q-15 0 -23 8.5t-12 21t-5 27t-1 27.5q0 15 4 48t10.5 69t14 68.5t14.5 47.5h-4q-1 0 -7 6z" />
    <glyph glyph-name="six" unicode="6" horiz-adv-x="413" 
d="M206 24q23 0 44 12t40 30.5t33.5 40.5t23.5 41q14 31 16.5 61t-6 54t-26 38.5t-43.5 14.5q-29 0 -55.5 -15t-50 -37t-43 -48t-34.5 -49q-5 -8 -8 -12t-1 -13q3 -16 7.5 -28t11.5 -24q15 -32 35 -49t56 -17zM51 241q0 50 12 102t33 101.5t49 95.5t59 85q8 9 23 24.5
t32 30.5t33.5 25.5t26.5 10.5q12 0 17 -11q-4 -6 -11.5 -9.5t-16.5 -12.5q-105 -100 -161.5 -226t-56.5 -273l8 10q16 24 35.5 50t42.5 47.5t50.5 35t59.5 13.5q48 0 75 -36t27 -81q0 -36 -15 -75.5t-41.5 -73t-61 -55.5t-73.5 -22q-30 0 -57.5 16.5t-50.5 54.5
q-25 42 -31.5 82t-6.5 91z" />
    <glyph glyph-name="seven" unicode="7" horiz-adv-x="403" 
d="M89 687q0 8 10.5 8t18.5 1q20 2 51 7.5t63 11.5t61.5 10.5t45.5 4.5q25 0 36.5 -12t14.5 -29t0 -36t-6 -33q-3 -13 -6.5 -23.5l-7.5 -22.5l-27 -91q-14 -47 -31.5 -96.5t-32.5 -103.5l-19 -70q-4 -12 -13.5 -50t-20 -80.5t-19 -80.5t-9.5 -50q-1 -19 -11 -19q-5 0 -8.5 5
t-3.5 11q0 19 4 45t9.5 53t11.5 53t10 45l31 132q17 69 31 131.5t36 130.5l25 83q2 5 4.5 15.5t4 21.5t0 20t-9.5 12q-9 3 -27 3q-25 0 -53.5 -3.5t-42.5 -5.5q-10 -2 -37 -6t-50 -4q-14 0 -23.5 2.5t-9.5 9.5z" />
    <glyph glyph-name="eight" unicode="8" horiz-adv-x="317" 
d="M192 341q-3 -5 -9.5 -20.5t-15.5 -32.5t-18 -30.5t-17 -13.5q-3 0 -6 4q-4 5 -2 7.5t5 6.5t10.5 19t15 31.5t13 30.5t4.5 17q-1 4 -10 14t-11 12q-2 -8 -4.5 -13t-5.5 -13q-21 -52 -36.5 -104t-15.5 -111q0 -38 16.5 -54t41.5 -16q29 0 61.5 20.5t52 53t17.5 73.5t-43 82
zM209 449q8 19 18 45.5t19 54.5t15 55t6 46q0 11 -1.5 25t-15.5 13q-5 0 -10.5 -3.5t-9.5 -6.5q-17 -12 -33 -32.5t-28 -44.5t-19.5 -48.5t-7.5 -45.5l2 -50q8 2 11 8t16 18q10 8 16 8t9.5 -3.5t4.5 -7.5l-14 -25q-4 -6 -6.5 -11.5t-6.5 -12.5q-4 -8 -7.5 -12.5t1.5 -12.5
q2 -3 8.5 -10.5t8.5 -9.5zM117 493q0 33 14 71.5t34.5 71.5t44.5 55.5t43 22.5q16 0 24 -7t13 -20q8 -22 4.5 -51.5t-9.5 -51.5q-3 -11 -6.5 -22t-7.5 -22l-68 -174q3 -2 12 -10.5t19 -18.5t19 -19.5t12 -12.5q12 -14 19 -25.5t10.5 -23t5 -25t1.5 -31.5q0 -27 -15 -55
t-38 -50t-52 -36t-56 -14q-21 0 -39.5 9.5t-32.5 31.5q-14 23 -18.5 52t-2 60t10 61t17.5 55q7 17 12 31t13 29q2 3 6.5 11.5t9 18t8.5 17.5t4 9q0 5 -5.5 21t-5.5 42z" />
    <glyph glyph-name="nine" unicode="9" 
d="M243 465q-3 -2 -8 -7l-11 -11t-11.5 -11t-7.5 -8q-10 -12 -27 -31t-36.5 -36.5t-39.5 -30.5t-37 -13q-23 0 -36.5 17.5t-18.5 40.5q-6 28 -4 59t10.5 62t20.5 60t25 53q8 14 19 30t25 30t30.5 23.5t34.5 9.5q37 0 60 -31q8 -10 14 -26t9 -33t3 -32t-5 -24q-15 0 -19.5 10
t-7.5 22q-9 40 -22.5 57.5t-28.5 17.5q-22 0 -46.5 -30t-44 -72.5t-31.5 -89t-9 -79.5q2 -26 9.5 -36t18.5 -10q12 0 27.5 10.5t30.5 24.5t28 28t20 21l73 73q6 3 11 3q9 0 11.5 -11.5t1 -25.5t-4 -27.5t-3.5 -18.5q-7 -42 -16.5 -92t-20.5 -101t-23 -100t-26 -90
q-4 -11 -7 -21t-8 -20q-11 -24 -25 -34.5t-28 -10.5q-23 0 -40.5 23.5t-17.5 56.5q9 0 10 -2t3 -9q9 -28 20 -40.5t22 -12.5t19.5 9.5t13.5 25.5q12 36 21 72.5t18 76.5l47 232q1 6 3.5 17t5 23.5t4.5 23.5t2 15z" />
    <glyph glyph-name="colon" unicode=":" horiz-adv-x="214" 
d="M101 25q-15 2 -20 12.5t-1.5 23t14 22.5t24.5 10h3q14 -1 20.5 -12t5 -23.5t-11 -22.5t-28.5 -10h-6zM86 220q2 14 12.5 21.5t21.5 7.5t18.5 -7t5.5 -21q-2 -16 -10.5 -22.5t-18.5 -6.5q-11 0 -21 7.5t-8 20.5z" />
    <glyph glyph-name="semicolon" unicode=";" horiz-adv-x="189" 
d="M38 -80q0 2 2.5 10t5.5 17t6 17.5t4 11.5l30 112q2 18 2.5 32.5t19.5 14.5q24 0 24 -28.5t-11 -64.5t-25 -69t-19 -42q-8 -15 -17 -21q-6 -2 -9 -2q-13 0 -13 12zM72 209q0 11 10.5 23t21.5 12q7 0 12 -8t5 -29q0 -11 -8.5 -17t-17.5 -6t-16 5.5t-7 19.5z" />
    <glyph glyph-name="less" unicode="&#x3c;" horiz-adv-x="336" 
d="M66 195q0 12 7 23t17.5 20.5t22 18t20.5 14.5q12 8 33 23.5t43 30.5t41.5 26.5t27.5 11.5q5 0 10.5 -4.5t5.5 -9.5q0 -12 -5.5 -16t-13.5 -10l-68 -55q-12 -10 -23.5 -19t-23.5 -19q-11 -8 -24 -17.5t-20 -20.5q16 -29 40.5 -56.5t47.5 -50.5l27 -24l18 -13.5t11.5 -8
t12 -7t18.5 -8.5q13 -6 10.5 -15.5t-10.5 -9.5q-21 0 -40 8.5t-36 21t-32 26.5t-28 24q-14 11 -26 24t-26 26q-11 11 -24 27.5t-13 38.5z" />
    <glyph glyph-name="equal" unicode="=" horiz-adv-x="257" 
d="M77 175q0 14 16 18t35 8q6 1 26 5.5t37 4.5q22 0 22 -11q0 -8 -2 -10.5t-5 -2.5t-6.5 0.5t-7.5 0.5l-44 -11q-23 -6 -33.5 -10.5t-21.5 -4.5q-3 0 -6 0.5t-8 1.5q-1 4 -1.5 5t-0.5 6zM61 118q0 11 14.5 13.5t26.5 2.5q9 0 13 1t12 2h15q15 0 31.5 -2.5t16.5 -13.5t-9 -11
q-3 0 -6 0.5t-7 0.5h-2l-63 -8q-5 -1 -12 -3t-14 -2t-11.5 4t-4.5 16z" />
    <glyph glyph-name="greater" unicode="&#x3e;" horiz-adv-x="239" 
d="M15 347q0 13 13.5 16t27.5 3q23 0 52 -0.5t50 -4.5q22 -3 32 -13q15 -13 12.5 -34.5t-13.5 -44.5t-26 -44.5t-24 -35.5l-98 -153q-8 -12 -13 -22t-16 -10q-15 0 -12.5 17t13 39t23 43t17.5 30l100 178q-4 2 -14.5 3.5t-22.5 2.5t-24 1.5t-18 1.5q-9 1 -19 2t-19 4t-15 8
t-6 13z" />
    <glyph glyph-name="question" unicode="?" horiz-adv-x="405" 
d="M124 270q-18 0 -31.5 13.5t-22 33.5t-12.5 42t-4 39q0 5 1 8.5t1 11.5q1 38 24.5 80t59 77.5t78.5 58.5t82 23q13 0 24 -2.5t22 -10.5q13 -8 23 -24q23 -38 21 -76.5t-16 -79.5q-17 -51 -39 -87.5t-42 -77.5l-127 -266q-8 -18 -8 -22t-9 -9l-2 1h-1h-1l-1 1h-2
q-3 12 3 32.5t15 43t19 44t16 34.5l67 142q5 11 12.5 25.5t16 29.5t16.5 29.5t14 26.5q10 20 20 44.5t16 50.5t5 51t-14 46q-16 26 -49 26q-30 0 -65.5 -20.5t-66 -52.5t-51.5 -71.5t-21 -77.5q0 -11 2 -29.5t7 -36.5t13.5 -31t22.5 -14h3h4q2 0 7 -3q-2 -14 -10.5 -18.5
t-19.5 -4.5zM97 -94q0 7 6 11t13 4q8 0 14 -5.5t4 -17.5q-1 -7 -7.5 -13.5t-14.5 -6.5q-6 0 -10.5 6t-4.5 22z" />
    <glyph glyph-name="at" unicode="@" horiz-adv-x="598" 
d="M42 45q0 14 3.5 28t6.5 25q17 49 50.5 97t78.5 86t97.5 61.5t105.5 23.5q55 0 93 -26.5t56 -66.5t13.5 -87t-33.5 -88q-19 -26 -40 -41.5t-56 -15.5q-15 0 -29.5 9.5t-26.5 23t-20.5 28.5t-11.5 25q-13 -7 -20.5 -13.5t-18.5 -15.5q-6 -5 -19.5 -15.5t-21.5 -10.5
q-14 0 -23 6.5t-9 23.5q0 23 12.5 48.5t32.5 46.5t44.5 34.5t48.5 13.5q25 0 36.5 -13.5t4.5 -25.5q-8 1 -8 3t-5 7q-7 8 -18 8q-15 0 -34.5 -12t-36.5 -30t-29.5 -38.5t-13.5 -37.5q11 6 19 12t18 13q28 22 43 22q14 0 20.5 -14.5t18.5 -32.5q26 -38 53 -38q19 0 44 19
q25 18 41 51.5t16 69.5q0 68 -41.5 103t-101.5 35q-58 0 -111 -30.5t-93 -70.5q-17 -17 -36 -42t-35.5 -52.5t-27 -55t-10.5 -50.5q0 -33 9 -54t26 -32t40.5 -15t53.5 -4q32 0 63 5t49 14q8 3 10.5 5.5t4 3.5t3.5 1.5t8 0.5q2 -8 0.5 -10.5t-7.5 -7.5q-12 -9 -30.5 -15.5
t-33.5 -9.5l-80 -8q-9 0 -13.5 1t-12.5 1q-56 3 -86 35t-30 89z" />
    <glyph glyph-name="A" unicode="A" horiz-adv-x="620" 
d="M46 -267q16 0 32 11.5t30 28t25 34t17 30.5q29 58 38 98t16 52q-4 -1 -12.5 -7t-17.5 -13t-16.5 -14.5l-11.5 -11.5q-17 -17 -39.5 -41t-41.5 -51.5t-30 -56.5t-5 -56q6 -1 8 -2t8 -1zM534 214q4 14 6 31t4 32q4 32 11 71.5t14.5 81t15.5 81t15 72.5q3 14 7.5 37t7 48
t1.5 48t-9 36q-25 -1 -55 -30t-58.5 -68t-52.5 -80t-37 -66l-41 -88q-10 -24 -21.5 -54t-22 -62.5t-19.5 -63.5t-16 -56q-2 -8 -5.5 -22.5t-7.5 -29.5t-7 -28.5t-4 -21.5q9 3 17.5 9t16.5 11l98 54q23 11 51 24t53 22q10 2 20 5t18 7zM40 -301q-23 0 -36.5 17.5t-13.5 41.5
q1 33 20.5 70t47 71.5t58.5 64.5t55 50q15 13 24.5 19.5t14.5 11.5t8 10.5t5 16.5q17 77 40.5 160.5t55 165t72 157t89.5 135.5q8 11 22 27t31 31t35.5 25.5t35.5 10.5q19 0 28.5 -10.5t13.5 -25t4 -30.5v-28q0 -24 -8.5 -77.5t-19.5 -115t-21.5 -120t-15.5 -91.5
q-2 -16 -4.5 -29t-2.5 -30q17 0 30.5 3t32.5 3q14 0 20.5 -6t7.5 -12.5t-3.5 -12.5t-12.5 -6q-7 0 -9 1t-2 1.5t-0.5 1.5t-4.5 1q-5 0 -15.5 -1t-30.5 -5q-14 -3 -17 -6t-5 -19l-48 -519q0 -23 -1.5 -44t-1.5 -47q0 -23 1.5 -39t1.5 -26t-4 -15t-15 -5t-16.5 18.5t-7.5 43
t-1.5 48.5t1.5 35q0 12 1.5 17.5t1.5 19.5q0 13 1 32.5t2.5 41l3 43t2.5 38.5l31 292q2 20 4.5 36t2.5 37q-14 -7 -37 -14.5t-50 -21.5l-48 -24t-33 -17t-31 -18.5t-43 -27.5q-2 -1 -7.5 -4.5t-11.5 -8t-11 -8t-5 -4.5q-3 -3 -9.5 -28.5t-17.5 -62t-27 -78.5t-38.5 -78
t-52 -59.5t-66.5 -23.5z" />
    <glyph glyph-name="B" unicode="B" horiz-adv-x="895" 
d="M457 199q22 5 44 15.5t47 10.5q2 0 4.5 -0.5t4.5 -0.5q44 -3 69 -28t37 -62t15 -80t3 -84q6 1 15.5 7.5t19.5 14t19 15t14 11.5l48 40q19 16 44.5 42t43.5 45q14 15 18.5 23.5t24.5 8.5h6q3 -12 3 -16.5t-8 -14.5q-5 -8 -9 -13t-11 -10q-5 -8 -8 -12.5t-11 -10.5
q-8 -11 -19 -19l-84 -78q-11 -11 -22 -19.5t-23 -17.5q-27 -20 -40.5 -28.5t-19 -14.5t-7 -15t-6.5 -31q-20 -106 -67 -202.5t-124 -173.5q-55 -55 -109 -79.5t-99 -24.5q-37 0 -65 15t-42.5 41t-13.5 61.5t22 76.5q20 38 50 71t63 59q38 29 74.5 53.5t73 46t74.5 43
t78 44.5q23 13 35 19t16 20v3q5 29 5 69.5t-8.5 77t-28.5 62.5t-55 26q-16 0 -34 -6q-31 -10 -50 -20t-32.5 -20.5t-25 -21t-28.5 -21.5q-3 -2 -4.5 -3.5t-6.5 -1.5q-2 0 -3.5 0.5t-3.5 0.5q-12 2 -14 9.5t1 16.5t9.5 18t10.5 14q5 8 9.5 14t9.5 13q40 58 80 112.5t76 116.5
q12 21 28.5 57t30.5 78t21.5 84.5t0.5 76.5q-7 36 -29 36q-19 0 -43 -20t-47 -46.5t-42.5 -53.5t-28.5 -41q-36 -58 -68.5 -126t-59.5 -139.5t-49.5 -144t-39.5 -138.5q-10 -39 -20 -75.5t-18 -77.5l-19 -127q-3 -13 -6 -17t-14 -9q-19 4 -20 14.5t1 30.5l19 188
q11 128 28.5 250.5t30.5 248.5q5 31 8.5 63t3.5 63q0 16 1 36.5t-1 34.5q-3 17 -5.5 29.5t-6.5 26.5q-17 -2 -28 -18t-19 -30q-42 -63 -72 -140.5t-41 -154.5q-4 -27 -5 -62t7 -59q6 -15 14 -18t15.5 -4t11 -4.5t0.5 -18.5q-13 -3 -25 -3q-16 0 -25.5 7.5t-17.5 22.5
q-13 29 -13 63t4 66q5 51 19.5 99t31.5 95l31 68q5 11 17 33.5t27.5 44.5t33 38.5t35.5 16.5q17 0 30 -17q13 -16 18.5 -36.5t7.5 -43t1.5 -45.5t-0.5 -43q0 -26 -2.5 -46t-4.5 -44q-2 -45 -8 -88.5t-13 -88.5l-15 -129q-2 -13 -4 -22.5t-2 -21.5q7 9 10 22t6 23l14 45
q7 23 15 44.5t16 44.5q19 55 45.5 117t60.5 122t74.5 113.5t86.5 91.5q32 28 64 28q24 0 42 -19.5t25 -59.5q7 -42 -1.5 -89.5t-26 -94.5t-40.5 -92t-45 -81q-8 -12 -22.5 -32.5t-29.5 -42t-27.5 -40t-16.5 -26.5zM268 -569q22 0 45 7.5t38 15.5q42 21 76.5 51.5t62 67
t50 77t41.5 82.5q5 11 12.5 32.5t15 45t12.5 45t5 33.5l-229 -131l-88 -64q-17 -14 -40 -36t-37 -40q-30 -39 -40 -73t-3.5 -59t27.5 -39.5t52 -14.5z" />
    <glyph glyph-name="C" unicode="C" horiz-adv-x="681" 
d="M-10 -65q0 71 9.5 141t24.5 135.5t34.5 126t39.5 111.5q14 36 33 76t42 78t50 72t57 58q28 22 61.5 37t65.5 15q24 0 46 -10.5t39 -33.5q23 -33 25.5 -62.5t2.5 -67.5q0 -33 -10.5 -75t-26 -85t-33.5 -84t-33 -71q-5 -12 -9 -18.5t-19 -9.5q-13 9 -13 16t8 21q4 11 8 20
t8 19q30 69 55.5 141.5t25.5 153.5q0 51 -21 74.5t-52 23.5q-32 0 -62 -18t-56.5 -47t-49 -66t-41.5 -74t-33.5 -71.5t-24.5 -58.5q-20 -51 -37 -110.5t-29 -119.5q-10 -50 -19 -107t-12 -116t3 -116.5t25 -107.5q14 -43 43 -74t77 -31q43 0 84 22.5t71 45.5l34 30
q10 9 18 15t18 16q82 84 141.5 188.5t114.5 209.5q9 17 17.5 23.5t15.5 6.5t11 -5t4 -10l-149 -272q-14 -21 -27.5 -41t-28.5 -40q-21 -29 -57 -68.5t-80 -75.5t-92.5 -61t-95.5 -25q-63 0 -102.5 38t-61 93t-29.5 116.5t-8 108.5z" />
    <glyph glyph-name="D" unicode="D" horiz-adv-x="1167" 
d="M397 -180q-14 -3 -31.5 -9t-33.5 -14t-29 -17.5t-18 -19.5q-9 -17 -2.5 -29t21.5 -20.5t34.5 -12.5t35.5 -4h23v126zM440 -300q25 0 70.5 15.5t92 36.5t84 42.5t45.5 33.5q-14 0 -31.5 4t-31.5 6q-25 4 -46.5 5.5t-41.5 1.5q-27 0 -55 -3t-62 -8q-12 -2 -16.5 -4.5t-5 -7
t0.5 -12t0 -19.5zM773 -146l18 13q15 10 20 15l50 43q6 5 9 7t9 7q8 6 22.5 21.5t31 33.5t31 34.5t20.5 24.5q4 5 6.5 8.5t7.5 8.5q8 10 13 18t12 19q26 38 50 78q23 40 41.5 89t29 102t10.5 106t-15 100t-46.5 84.5t-83.5 59.5q-31 14 -64 19t-66 5q-46 0 -90.5 -8
t-85.5 -20l-100 -35q-24 -10 -37 -16t-20.5 -11t-10 -12.5t-5.5 -21.5q-11 -60 -21 -110.5t-20 -112.5q-9 -55 -13.5 -102.5t-11.5 -97.5l-14 -209q0 -41 -2 -66t-3.5 -39t-1.5 -19t6 -5q4 0 10 1t16 3q26 4 49.5 5.5t46.5 1.5q40 0 78 -4t83 -12q11 -2 19.5 -4t21.5 -2z
M550 707q11 0 20 5t19 9l114 43q42 12 86 19.5t89 7.5q66 0 127 -19t108 -67q34 -34 53 -75t26.5 -86t5 -92t-12.5 -91q-25 -106 -71.5 -190.5t-114.5 -164.5l-30 -33q-6 -7 -16.5 -18.5t-22.5 -23.5t-23 -22.5t-17 -14.5q-9 -8 -17.5 -14.5t-17.5 -14.5q-13 -9 -21 -15
t-11 -16q12 -3 23 -9.5t18 -15.5t6.5 -19t-12.5 -18q-11 7 -13 13t-16 14q-26 13 -37 13t-19 -6.5t-25 -17.5q-21 -14 -47.5 -29t-54 -28.5t-55.5 -25.5t-52 -19q-8 -3 -21 -7t-27 -7.5t-28 -6.5t-24 -3l4 -80q1 -5 -4 -9.5t-12 -4.5q-15 0 -23 23q-3 11 -3.5 19t-1.5 20
q-2 19 -4.5 24.5t-8.5 5.5q-4 0 -8.5 -0.5t-11.5 -0.5q-17 0 -37.5 5t-38.5 15t-30.5 24.5t-12.5 34.5q0 33 18.5 52.5t43.5 32t50.5 19.5t40.5 15q0 28 1.5 52t1.5 50q0 24 3.5 51t3.5 51q0 30 4 83.5t10 112t13 111t11 80.5l36 176q-17 -9 -44 -27t-55 -39.5t-54 -43.5
t-41 -37l-66 -70q-31 -35 -68 -85.5t-69 -105.5t-54 -110t-22 -100q0 -24 6 -33.5t13.5 -12.5t14.5 -4.5t9 -10.5q3 -14 -16 -14q-8 0 -18 4t-19 13t-15 23.5t-6 34.5q0 34 11.5 74t29 79t37.5 74.5t37 60.5q25 37 48 67t46.5 57.5t49.5 54t57 57.5q38 33 77 64t82 57
q15 8 28 15t17 18q7 14 11.5 26.5t22.5 17.5l13 -6.5t3 -14.5z" />
    <glyph glyph-name="E" unicode="E" horiz-adv-x="905" 
d="M192 -294q0 4 0.5 13t1 19t1.5 18t2 11q-8 -2 -8.5 -4t-4.5 -9q-6 -14 -4.5 -27t12.5 -21zM272 635q0 29 4.5 55.5t4.5 54.5q0 11 2 27t3 29q1 11 1 16.5t1 9.5t4 7t11 7q8 -5 13.5 -9.5t5.5 -17.5q0 -24 -0.5 -44t-2 -38.5l-3 -37t-3.5 -40.5q8 2 20.5 7.5t21.5 8.5
q67 27 144.5 52.5t149.5 39.5q12 3 39 8t62 9.5t74 8t74 3.5q50 0 84.5 -9t34.5 -34q0 -29 -20.5 -43t-40.5 -16q5 14 16 28t13 28q-13 2 -23.5 5t-27.5 3q-51 0 -88 -1t-71.5 -5t-71 -11t-86.5 -19q-7 -2 -31.5 -9.5t-57.5 -18t-70.5 -23t-69 -24.5t-53.5 -21.5t-25 -15.5
l-32 -314q-1 -14 -3.5 -30.5t-2.5 -31.5q11 2 34.5 11t38.5 14q13 4 33.5 10t42.5 11.5t42.5 10.5t34.5 6q21 3 35 3q26 0 31 -10t0 -30q-5 -1 -7 -1.5t-9 -1.5q-1 6 -3 9.5t-9 3.5q-19 0 -50.5 -6.5t-66 -16t-66.5 -20t-52 -18.5q-8 -3 -15.5 -6t-16.5 -4l-32 -350
q12 1 27 9.5t26 13.5q41 18 85.5 30.5t89.5 19.5q9 2 36.5 5.5t65 7.5t81 6.5t84.5 2.5q29 0 54.5 -2t45 -6.5t30.5 -11.5t11 -18q0 -8 -0.5 -11t-1.5 -4t-3 -2.5t-6 -6.5q-4 3 -5.5 6t-5.5 6.5t-12 6.5t-24 6q-33 6 -90 6q-51 0 -105.5 -3t-109.5 -11t-107.5 -21.5
t-98.5 -33.5q-10 -4 -16.5 -7t-15.5 -8q-8 -4 -16 -7.5t-13 -6.5q-6 -4 -9 -14t-4.5 -22t-1.5 -24.5t-1 -22.5q-3 -34 -11.5 -47t-19.5 -13q-8 0 -16 6t-15 14.5t-11 18t-4 16.5q0 29 6.5 44.5t15 24t16.5 14t11 14.5q1 4 2.5 20.5t3 36.5t2.5 38t1 24q0 12 1 14.5t2 13.5
q0 8 -0.5 15.5t0.5 15.5l13 178l-84 -43q-1 0 -12.5 -7.5t-21.5 -7.5t-10 13q0 6 7.5 13t17.5 14t20 13t15 8l74 35q0 26 2 49t5 48l28 280l-20 -10t-21 -9l-119 -62q-20 -11 -38.5 -22.5t-37.5 -24.5q-5 -3 -9.5 -6l-10.5 -7l-7.5 -6t-8.5 -6q-12 -6 -19 -6q-14 0 -14 15
q0 11 31 33.5t70.5 46t76 43t47.5 25.5z" />
    <glyph glyph-name="F" unicode="F" horiz-adv-x="686" 
d="M416 757q10 0 9 -4t7 -4q2 0 5 0.5t8 1.5q53 14 124 30t145.5 29.5t145 22t121.5 8.5q14 0 32.5 -2t35 -7.5t28 -14t11.5 -21.5q0 -6 -1 -8t-2 -8l-9 -1.5t-11 -0.5q-1 13 -7 16.5t-15 7.5q-11 4 -27 5.5t-35 1.5q-48 0 -110 -8t-123.5 -19.5t-114 -23t-81.5 -18.5
q-34 -6 -64.5 -14.5t-62.5 -15.5q-17 -77 -30 -155.5t-24 -158.5q-5 -26 -8.5 -54t-3.5 -57l138 51q9 3 23.5 6.5t32 6.5t36 5t34.5 2q24 0 34 -5q4 -15 3 -18.5t-10 -3.5h-8q-52 0 -106 -17.5t-102 -36.5q-30 -12 -46.5 -17t-24.5 -9.5t-10 -12t-3 -22.5q0 -13 -2 -30.5
t-4 -35.5t-4 -35.5t-2 -30.5l-12 -134q-1 -20 -3 -49t-4 -59t-3.5 -57t-1.5 -45q0 -15 1.5 -30.5t1 -28.5t-3.5 -21t-11 -9q-7 -1 -12 4t-8 11q-5 12 -6 42.5t0 66.5t2.5 69t2.5 49q1 10 3 37.5t5 63.5t6.5 76t6.5 73.5t5.5 56t3.5 24.5q-10 -1 -26.5 -8.5t-34 -17
t-32.5 -19t-23 -14.5q9 -14 4.5 -20t-13.5 -6q-10 0 -20 4.5t-10 12.5q0 17 16.5 33t39 29.5t46 24t38.5 17.5q11 6 15 9.5t6 17.5q1 15 4.5 48t9 75t11.5 87.5t12.5 86t13 71t11.5 42.5q-9 0 -36 -8.5t-57.5 -19.5t-59 -21.5t-40.5 -15.5q-14 -6 -38 -16t-49 -22.5
t-45.5 -27t-28.5 -28.5q6 -2 8 -3t10 -2q14 -4 31.5 -5t34.5 -1q26 0 50 1.5t37 1.5q8 0 10 -1q3 -1 6 -4.5t3.5 -7.5t-3 -7.5t-14.5 -4.5q-33 -4 -52.5 -6t-42.5 -2q-10 0 -21.5 0.5t-26.5 1.5q-55 4 -63 31.5t31 56.5q27 20 62.5 38.5t73 34t75 29t68.5 23.5q5 1 18.5 5
t29 9t28.5 9.5t15 6.5q7 8 8 12.5t15 4.5z" />
    <glyph glyph-name="G" unicode="G" horiz-adv-x="866" 
d="M449 -497q21 0 40.5 21t37.5 54t33 74t26 80t18 72.5t8 51.5q-11 -8 -18 -18.5t-17 -19.5q-19 -20 -41 -46.5t-42 -55.5t-36 -58t-24 -53q-3 -10 -7.5 -27.5t-4.5 -34t5.5 -28.5t21.5 -12zM0 86q0 59 10.5 127t30 136.5t48.5 131.5t66 111q39 54 85.5 83.5t91.5 29.5
q39 0 73 -23t60 -74q21 -44 30 -97t8.5 -109t-8.5 -111t-20 -103q-7 -29 -11 -39.5t-13 -10.5q-3 0 -7.5 1t-10.5 3q-5 21 -2.5 33.5t5.5 35.5q7 31 11 56t6 49t2.5 49.5t0.5 57.5t-7 71.5t-22 74.5t-38 59t-56 24q-30 0 -58 -17t-53 -45t-46 -63t-38 -70.5t-29.5 -68.5
t-19.5 -56q-12 -40 -23 -95.5t-15.5 -114t1 -114.5t26.5 -99q7 -14 16 -29.5t23 -25.5q17 -15 36.5 -21.5t39.5 -6.5q28 0 56.5 10t54.5 25t49 33t40 35l54 59q18 23 32.5 44.5t27.5 42.5t25.5 43.5t27.5 48.5q8 14 20 37t25.5 45t28 37.5t26.5 15.5q14 0 21 -15t9.5 -35.5
t2.5 -41.5v-34q0 -68 -9 -124.5t-10 -86.5q5 3 6.5 6t8.5 7q5 5 8 6.5t8 5.5l139 136q5 6 11.5 14.5t14.5 16.5t16.5 13.5t15.5 5.5q15 0 11 -11t-14.5 -25t-23.5 -26.5t-16 -16.5q-10 -10 -17.5 -19.5t-18.5 -19.5l-150 -142q-10 -9 -12 -25t-6 -29q-7 -39 -19.5 -91.5
t-30.5 -105t-42.5 -98.5t-56.5 -73q-8 -6 -22 -14.5t-25 -8.5q-26 0 -40 8.5t-20 22t-6.5 30.5t-0.5 34q0 33 15.5 68.5t38 70t47 65.5t42.5 54q7 8 13.5 14t11.5 15q19 24 30.5 32t19 14t12 17t9.5 41q3 24 8.5 66t9.5 86.5t5.5 85t-3.5 61.5l-43 -71q-21 -33 -35 -57
t-27.5 -46.5t-29.5 -47t-41 -57.5q-21 -29 -53 -61.5t-69.5 -60t-78 -45.5t-77.5 -18q-31 0 -57.5 5t-52.5 31q-49 50 -68 115t-19 143z" />
    <glyph glyph-name="H" unicode="H" horiz-adv-x="796" 
d="M460 -149q0 20 2.5 40t5.5 40l31 226q-14 0 -34.5 -6.5t-34.5 -9.5q-39 -11 -85 -29t-92 -39.5t-89 -45.5t-76 -48q-9 -7 -11.5 -10.5t-3.5 -17.5q0 -14 -1 -20t-1 -17q18 0 39 3t40 3q19 1 37.5 1.5t38.5 0.5q56 0 110.5 -10.5t102.5 -46.5q6 -5 9.5 -8.5t11.5 -5.5z
M506 193q4 19 7 39l6 40q8 42 20.5 102.5t27 123.5t30 121.5t28.5 97.5q11 32 14.5 44t15.5 12q4 0 7.5 -0.5t8.5 -1.5q2 -12 2 -20.5t-2.5 -17.5t-6 -19.5t-7.5 -25.5q-6 -22 -15 -61t-20 -85.5t-22 -97t-20.5 -97t-16 -84t-8.5 -59.5q8 3 30 7t32 6q8 2 29 6t48 9
t55.5 8.5t52.5 3.5q23 0 38 -5t13 -18q-1 -8 -6 -10t-12 -2q-5 0 -10 0.5t-10 0.5h-5q-42 0 -89 -8t-87 -14l-86 -18l-48 -326q-6 -36 -6 -49t2 -19t4.5 -11.5t2.5 -25.5v-26.5t-1 -19.5t-3 -19.5t-6 -26.5q-6 -23 -14 -32t-16 -9q-9 0 -15 7.5t-6 16.5q0 42 2.5 69.5
t4.5 62.5q1 18 1.5 28.5t-1.5 17t-8 12.5t-19 17q-27 23 -72 38t-95 15q-12 0 -41.5 -0.5t-60 -1t-55 -2t-27.5 -4.5l-13 -130q-2 -17 -3 -34.5t-1 -33.5l-10 -136q-1 -20 -1.5 -33.5t-21.5 -13.5q-8 0 -13.5 9t-5.5 18q0 57 2.5 107.5t2.5 96.5q0 27 5.5 69t5.5 83
q-15 1 -21 8t-6 17.5t6.5 22t16.5 22.5q12 12 12.5 20t1.5 28q2 28 5.5 56t3.5 57l11 114q16 121 34.5 240t42.5 239l4.5 22.5t2.5 11.5t3 5t7 4l2 2q2 2 5 2q5 0 10 -4q8 -6 8.5 -24t-1.5 -38.5t-5.5 -38.5t-4.5 -24q-7 -38 -16 -96.5t-17.5 -121t-15.5 -121t-10 -97.5
q-4 -43 -10.5 -87.5t-6.5 -89.5q5 1 35.5 21t85.5 48t132 58.5t173 52.5z" />
    <glyph glyph-name="I" unicode="I" horiz-adv-x="473" 
d="M50 263q0 51 17 105t44.5 106t62 98t70.5 82q8 7 14 11.5t13 12.5q12 12 28 25t34 24t37 18t38 7q20 0 38 -10t32 -35q19 -34 21.5 -84t-3.5 -103t-17 -103.5t-19 -84.5q-18 -81 -34 -149.5t-30 -135.5t-26.5 -136.5t-24.5 -153.5q-2 -15 -4 -31t-4 -31
q-2 -11 -3.5 -27.5t-12.5 -16.5q-4 0 -6 1q-11 5 -10 24t3 34l23 183q7 59 18 117.5t23 116.5q14 56 26.5 111.5t26.5 112.5q7 27 17 72t16.5 93.5t6.5 93.5t-13 73q-10 20 -20 28.5t-30 8.5q-17 0 -41 -14t-48 -33.5t-44.5 -39.5t-30.5 -33q-34 -38 -62 -80.5t-48 -90.5
q-12 -27 -22.5 -62.5t-14 -73.5t2.5 -73.5t28 -62.5q21 -27 50 -37q8 -3 14 -4.5l14 -3.5q25 -7 16.5 -21.5t-36.5 -14.5q-19 0 -43.5 11.5t-50.5 43.5q-21 25 -28.5 59t-7.5 73z" />
    <glyph glyph-name="J" unicode="J" horiz-adv-x="492" 
d="M-31 -410q18 0 39.5 13t42 32t37.5 40t25 38q16 21 36.5 66.5t39 95.5t31 95t12.5 64q-8 -5 -15 -9t-15 -9l-57 -43q-8 -6 -14 -11t-13 -13q-7 -7 -13 -11t-13 -12l-68 -77q-22 -27 -40.5 -59t-33.5 -65q-6 -13 -13 -36t-7.5 -45t7.5 -38t32 -16zM15 401q0 30 7 61.5
t18 60.5t24 55.5t24 46.5t27.5 46t37 49.5t44 39.5t48.5 16q36 0 56 -36.5t29 -93t10 -124.5t-3 -132t-9.5 -115.5t-9.5 -74.5l-15 -94q11 6 27 11.5t29 10.5t26.5 9.5t28.5 10.5q32 11 60 20t62 9l3 -7.5t1 -7.5q0 -3 -15 -9t-34 -12.5t-36 -11.5t-22 -6q-26 -8 -55 -18
t-52 -22q-10 -4 -16 -6t-9.5 -4.5t-6.5 -8.5t-6 -18q-24 -103 -60.5 -201t-100.5 -183q-12 -15 -29.5 -33t-38 -33t-42.5 -25.5t-43 -10.5q-32 0 -53 17.5t-21 47.5v28q0 28 12 61t30 66t39 62.5t39 50.5q38 45 76.5 79.5t86.5 68.5l58 34q3 4 7.5 27t9 50.5t8 52.5t4.5 34
q2 20 4 41.5t5 44.5l12 179q0 23 -3 44q-2 22 -1 51t-12 78q-8 32 -18 45.5t-22 13.5q-15 0 -33 -16.5t-39 -44.5q-20 -26 -41 -59.5t-38 -70.5t-28 -75.5t-11 -74.5q0 -27 6 -51.5t26 -38.5q11 -10 18 -10t23 -3q14 -3 13.5 -14t-10.5 -11q-29 0 -49 6t-39 35
q-11 18 -14.5 42t-3.5 51z" />
    <glyph glyph-name="K" unicode="K" horiz-adv-x="388" 
d="M10 -67q0 7 4.5 17.5t10.5 22.5t12 24.5t8 23.5l12 112q5 45 13.5 99.5t19 110.5t22.5 109t24 96l43 141q7 20 11.5 28t19.5 8q11 0 12 -12.5t-2 -28.5t-7.5 -31t-6.5 -20q-22 -82 -42 -167.5t-35 -170.5q-2 -11 -5.5 -31t-7 -42t-6 -41t-2.5 -29q9 11 11 15.5t8 15.5
q5 8 9.5 16t9.5 16q20 33 33.5 54t27 38.5t28.5 35.5t38 46q6 8 22 24.5t37 36.5t45.5 41t47 38.5t41 28.5t28.5 11q14 0 18 -5.5t3.5 -12.5t-4 -13t-5.5 -8q-8 -6 -11.5 -4.5t-13.5 -2.5q-5 -2 -9.5 -6.5t-8.5 -7.5q-10 -7 -18.5 -14t-18.5 -15l-33 -30q-14 -14 -32 -29.5
t-35 -34.5l-59 -68q-45 -55 -81 -115.5t-68 -123.5q-8 -16 -13.5 -26.5t-9 -21t-5 -24.5t-1.5 -36q23 0 44.5 -8.5t41.5 -21.5t38.5 -28.5t33.5 -30.5l125 -116q6 -6 13 -12t14 -11q8 -6 13 -11t13 -11l95 -75q9 -11 5 -18.5t-12 -7.5q-7 0 -31 16.5t-51.5 37t-51.5 39.5
t-30 24l-98 89q-14 14 -34.5 32.5t-43 36t-45 29.5t-42.5 12q0 -13 -1.5 -18t-1.5 -17q-1 -15 -2 -39t-1.5 -49.5t0 -48.5t1.5 -35q2 -15 1 -31t1 -31q1 -16 3.5 -35t4 -35t0 -27t-10.5 -11q-14 0 -18 8t-6 20q-5 28 -6.5 64t-6.5 71q-2 13 -3 40t-1.5 56t-0.5 55.5v40.5h-7
q-8 2 -14.5 4.5t-6.5 14.5z" />
    <glyph glyph-name="L" unicode="L" horiz-adv-x="392" 
d="M0 -105q0 58 5.5 122.5t15 129t21.5 127t25 116.5q4 17 12.5 50.5t19.5 74.5t24 85t25.5 83t24.5 69t20 42q10 13 24 13q11 0 17 -11t-3 -34q-5 -13 -9 -26t-9 -27q-19 -57 -35 -113.5t-31 -114.5q-21 -85 -42.5 -178t-32.5 -180q-3 -21 -6.5 -46.5t-7 -52t-5.5 -52.5
t-2 -47q0 -26 -1.5 -46.5t-2 -41.5t2 -46t9.5 -62q16 -75 41 -75q16 0 34.5 24t39.5 63l160 290q4 6 6.5 10t6.5 12q4 7 14.5 27.5t22.5 42t24 38.5t18 17q14 0 14 -14q0 -6 -10 -27t-23.5 -45t-25.5 -46t-17 -31l-140 -256q-8 -16 -21.5 -40.5t-30.5 -47t-36.5 -39
t-40.5 -16.5q-33 0 -52 35t-28.5 82t-12 93t-2.5 69z" />
    <glyph glyph-name="M" unicode="M" horiz-adv-x="765" 
d="M368 -25q7 4 13.5 15.5t12.5 25t11 27.5t8 23q29 75 52.5 146.5t53.5 148.5q5 13 17.5 43t29.5 66.5t37.5 76t41.5 71.5t41.5 53t38.5 21q20 0 30 -16.5t14 -41.5t3 -55.5t-4 -58.5t-6.5 -50t-4.5 -31l-62 -413q-17 -112 -25 -217t-20 -214q-2 -27 -2 -59v-60
q0 -14 -4.5 -20t-9.5 -6q-6 0 -11.5 7t-6.5 19q-1 13 -1 19.5t-1 15.5l30 446q6 47 11 88.5t10.5 82t11.5 83t14 91.5q3 21 12 72t17 107.5t11 106t-6 68.5q-20 -10 -36 -31.5t-27 -41.5q-15 -25 -27 -46t-22 -42t-20 -43t-22 -49q-25 -55 -40 -100t-35 -95
q-4 -11 -11.5 -35.5t-17.5 -54.5t-21.5 -62t-24.5 -58.5t-26.5 -43.5t-26.5 -17q-16 0 -24.5 18t-12.5 43t-4 51.5t1 42.5l15 200q0 6 -1 13.5t-1 18.5q-9 -2 -11 -5t-7 -10q-21 -28 -39.5 -69t-34 -85.5t-28 -88t-20.5 -75.5q-12 -48 -23.5 -95.5t-24.5 -92.5
q-8 -35 -19 -67.5t-25 -65.5q-7 -12 -13.5 -19t-21.5 -7q-14 0 -24.5 18.5t-17.5 48t-11.5 65.5t-7 70.5t-3 64t-0.5 45.5l10 202q5 48 11 93.5t13 92.5q1 5 5.5 31t11.5 62.5t16 77t19 75t20.5 57.5t20.5 23q11 0 14 -6t2 -15t-4.5 -18.5t-5.5 -17.5q-12 -43 -20.5 -79
t-15.5 -71.5t-13 -73t-13 -82.5q-8 -55 -15.5 -129t-11 -152.5t-2 -155.5t11.5 -138l10 -49q8 2 10 6.5t6 12.5l24 72q17 61 33.5 126.5t34.5 130.5t39 126.5t48 115.5q10 19 23.5 43t29.5 35q9 6 20 6q17 0 23 -14q8 -14 9 -51.5t-1.5 -82.5t-6 -88.5t-3.5 -69.5
q0 -30 2.5 -45t2.5 -31z" />
    <glyph glyph-name="N" unicode="N" horiz-adv-x="576" 
d="M483 676q0 3 5 7.5t10 4.5q11 0 12 -11t3 -20q1 -11 1.5 -18.5t2.5 -19.5q2 -13 5 -34.5t6.5 -44.5t6 -44t2.5 -32q1 -11 2.5 -19.5t1.5 -22.5q0 -11 -0.5 -20t1.5 -20q2 -16 1 -22.5t-2 -18.5l-4 -84q-4 -60 -17.5 -142t-32.5 -167t-41 -164t-44 -133q-4 -11 -12 -27.5
t-17.5 -31.5t-21.5 -26t-25 -11h-12q-23 0 -41.5 34.5t-33 87.5t-25 118t-18 125.5t-12 110l-6.5 71.5q-2 32 -3.5 65.5t-5.5 62.5q-1 9 -0.5 17.5t0.5 17.5q-1 9 -2 14t-1 17q0 7 -1.5 34.5t-4 59t-6.5 57.5t-9 30q-3 -12 -7 -23.5t-7 -23.5q-14 -48 -30 -120.5
t-30.5 -149.5t-25.5 -149.5t-15 -119.5q-4 -45 -7 -78t-5 -64.5t-3 -65.5t-1 -80q0 -15 1.5 -31t2 -30t-1.5 -23t-10 -9q-12 0 -14.5 6.5t-4.5 20.5l-5 72q-2 37 0 92t7 114t11 115t11 96q3 17 10 57.5t17 92t22 108.5t24.5 106.5t23.5 85.5t20 47q10 13 25 13q9 0 19 -8
q10 -10 17.5 -41t13 -67.5t8.5 -70.5t3 -50l22 -320q5 -42 9 -86.5t11 -95.5q2 -12 7.5 -46t14 -70t19.5 -64.5t23 -28.5q13 0 27.5 23.5t28.5 59t27 78t23 81t17 67.5t9 37q26 116 42 225.5t16 232.5q0 33 -4 73.5t-9.5 80.5t-9.5 74.5t-4 55.5z" />
    <glyph glyph-name="O" unicode="O" horiz-adv-x="607" 
d="M81 321q1 12 8.5 31.5t17 40.5t18.5 40.5t14 30.5q1 2 2 8t3 12t6.5 11t12.5 5q21 0 16 -25.5t-19 -61t-30 -72t-16 -58.5q8 -2 14.5 -7t12.5 -10q19 -12 34 -18t29.5 -10t30 -6.5t35.5 -5.5q11 -1 28.5 -1t34.5 -1t29.5 -5t12.5 -13q0 -7 -13 -9.5t-33 -2.5q-15 0 -31 1
t-30.5 2.5t-26 3t-16.5 2.5q-29 5 -49 13t-34 15.5t-23 14t-16 7.5q-1 -10 -4.5 -20.5t-5.5 -21.5q-6 -29 -11.5 -65.5t-8.5 -65.5q-2 -19 -3 -31.5t-1 -23t-0.5 -20.5t-1.5 -22q-3 -31 0 -68.5t11.5 -74.5t24 -70.5t37.5 -55.5q1 -1 1 -2q1 0 1.5 -1t1.5 -1
q20 -18 41.5 -30t53.5 -12q57 0 106 37.5t85.5 93t60 117.5t30.5 112q2 17 5 39t5 45.5t3 45.5t-1 39q-1 10 -1 28t-2 29q-4 35 -9 63t-12 53.5t-16.5 51t-24.5 56.5q-16 35 -42.5 71.5t-60.5 66.5t-73.5 49t-81.5 19q-54 0 -92.5 -34.5t-61.5 -80.5q-13 -29 -20.5 -60.5
t-6.5 -63t10.5 -61t30.5 -55.5q4 -5 3.5 -5.5t7.5 -2.5zM0 465q0 29 8.5 60.5t24 61t36.5 55.5t45 42q29 21 51.5 24.5t56.5 3.5q38 0 75.5 -17.5t71.5 -44.5t62 -59.5t46 -63.5q39 -67 60 -143t25.5 -154.5t-6.5 -157.5t-35 -153q-15 -45 -41 -94.5t-63 -90.5t-82.5 -68
t-99.5 -27q-49 0 -91 28t-72 83q-25 47 -36 106.5t-12 122.5t7 125t20 113q2 10 4 18.5t4 17.5q4 17 6.5 22.5t1.5 9.5t-7 9.5t-18 20.5q-26 35 -34 71.5t-8 78.5z" />
    <glyph glyph-name="P" unicode="P" horiz-adv-x="775" 
d="M267 -99q50 0 97.5 17.5t89.5 46t77.5 63.5t61.5 71q31 39 56.5 86t43.5 97.5t28 102.5t10 101q0 41 -9 78t-25.5 65t-41 44.5t-56.5 16.5q-46 0 -86 -28.5t-73 -69.5t-58 -88t-39 -83l-39 -104q-18 -54 -35 -112.5t-28 -112.5q-2 -13 -7 -39t-10 -54t-9 -52.5t-4 -35.5
q8 -5 25 -7.5t31 -2.5zM211 110q0 1 0.5 1t0.5 1l12 48q12 53 33 120t48 134.5t60.5 127t71.5 97.5q36 36 73 61t91 25q41 0 74 -20.5t56 -56.5q27 -43 35.5 -95t4.5 -106t-17.5 -106t-29.5 -94q-34 -92 -99.5 -175.5t-146.5 -138.5q-18 -11 -42 -23.5t-51.5 -23t-56.5 -17
t-58 -6.5q-24 0 -38.5 4.5t-28.5 5.5l-14 -163q-1 -9 -2.5 -27.5t-2 -39.5t-1.5 -40t-2 -30q-2 -18 -2.5 -35.5t-2 -31t-6 -21.5t-13.5 -8q-8 0 -16 4q-4 15 -4.5 52t0.5 79t2.5 80.5t1.5 57.5q0 22 1.5 38.5t1.5 36.5q0 23 1 38t1 35q-5 5 -11.5 8.5t-12.5 8.5
q-18 13 -17 26t12 13q7 0 12 -4q7 -4 11 -7t6 -3q4 0 3.5 10.5t0.5 39.5q0 13 1.5 18t1.5 17q1 10 0 20.5t1 20.5q1 11 2 17.5t1 20.5q0 23 1 53t3 61.5t3.5 62t1.5 54.5q0 20 1.5 54t1.5 70.5t-2 69.5t-10 49q-8 -5 -16 -17t-15 -26t-12.5 -28.5t-10.5 -25.5
q-9 -25 -16 -59.5t-12 -60.5q-5 -34 -3 -69.5t7 -65.5q5 -25 11 -38.5t11.5 -20.5t10 -9.5t6.5 -6.5q5 -8 1 -13.5t-12 -5.5q-9 0 -21.5 9.5t-23.5 35.5q-11 30 -14 52.5t-7 53.5q-2 10 0 16.5t2 19.5q0 55 11.5 107t30.5 100q4 11 11.5 26.5t17 30.5t20.5 25.5t23 10.5
q21 0 33 -18t18 -45t7 -58t1 -56q0 -87 -2.5 -169t-2.5 -163z" />
    <glyph glyph-name="Q" unicode="Q" horiz-adv-x="665" 
d="M149 -26q0 -56 0.5 -97.5t11.5 -86.5q13 -50 34.5 -78t55.5 -28t77 29q-5 8 -13 17t-14 15q-11 11 -27 32t-32.5 44.5t-31.5 46t-23 37.5q-3 5 -8 15.5t-11 21.5t-11 20.5t-8 11.5zM121 143q8 5 7.5 5.5t1.5 12.5l18 63q15 55 39 115.5t54 121t64.5 116.5t70.5 102
q9 12 19.5 17t18.5 5q18 0 18 -14q0 -4 -3 -7t-8 -7.5t-13 -12.5t-18 -22q-40 -58 -76 -128.5t-65.5 -146t-52 -152t-35.5 -145.5q-3 -15 -2.5 -18.5t6.5 -16.5q15 -32 26.5 -56t24 -46t27 -44.5t34.5 -52.5q10 -13 19 -24t19 -25q8 -10 20.5 -24.5t22.5 -20.5q6 8 13 14.5
t15 14.5q44 43 80 103.5t63.5 127t45 135.5t22.5 129q5 45 7.5 91t-5.5 93q-8 58 -20 102.5t-42 94.5q-42 70 -96 102.5t-111 32.5q-39 0 -77 -15t-70 -43.5t-56 -69.5t-37 -94q-7 -26 -11.5 -63t-4.5 -69l5 -80q3 -20 5.5 -36.5t4.5 -33.5zM40 433q0 88 26.5 167t78.5 130
q25 25 47 40t45 23.5t50 11.5t61 3q35 0 67.5 -13t60.5 -34.5t51 -48.5t40 -55q34 -56 51 -124.5t19.5 -142t-8 -150.5t-31 -149.5t-50 -139t-65.5 -119.5q-11 -19 -22 -33.5t-25 -31.5l-52 -60q8 -5 11 -9t10 -9q70 -62 149 -104q14 -8 33 -17.5t38.5 -20t38.5 -19.5
t34 -15q21 -9 33 -13t12 -13q0 -17 -17 -17q-14 0 -31.5 8t-23.5 12q-14 7 -25.5 11t-25.5 12q-54 27 -106 56t-99 67q-5 4 -10.5 7.5t-10.5 8.5q-10 8 -20 16.5t-16 18.5q-11 -8 -20.5 -15t-22.5 -14q-30 -16 -65 -16q-48 0 -77.5 31.5t-46 76.5t-22.5 94.5t-6 85.5
q0 45 5 78.5t5 63.5q0 6 -10.5 33.5t-23.5 74t-23.5 110.5t-10.5 143z" />
    <glyph glyph-name="R" unicode="R" horiz-adv-x="622" 
d="M270 -26q0 14 -0.5 30t4.5 25q-4 0 -14.5 -5.5t-21.5 -12t-19.5 -12.5t-10.5 -8q6 -2 15 -4l18 -4q8 -2 16 -4.5t13 -4.5zM329 130q34 24 71.5 57t73 70.5t67 75.5t54.5 72q37 54 67 114t30 131q0 43 -30.5 73.5t-73.5 30.5q-48 0 -80.5 -8t-74.5 -29q-15 -7 -15.5 -11
t-3.5 -22q-4 -23 -9 -45t-10 -45q-4 -22 -8 -43t-9 -44q-9 -44 -15.5 -91t-11.5 -93q-2 -15 -5.5 -42.5t-7.5 -57t-6.5 -55.5t-2.5 -38zM51 207q0 49 24 115.5t60 132.5t78.5 122.5t79.5 84.5q12 9 20 16t15.5 13.5t17 14t24.5 17.5q42 26 96 49t107 23q77 0 122 -42.5
t45 -117.5q0 -36 -8.5 -70t-22.5 -65.5t-31 -60t-34 -54.5q-17 -25 -31.5 -44t-29 -35.5t-30 -33.5t-34.5 -38l-107 -99q-30 -27 -48 -38.5t-27 -20t-11.5 -20.5t-2.5 -40q0 -19 -2 -31t-2 -31q17 -13 34 -22t35 -22q101 -75 199 -159t206 -161q11 -8 14 -11t3 -22
q-6 -2 -8 -3t-9 -1q-5 0 -31 18t-62 45.5t-77.5 60t-78.5 63t-65.5 53.5t-38.5 31q-7 6 -24 19t-36 27t-36 24.5t-25 12.5q0 -11 -1.5 -14t-1.5 -16q0 -38 -0.5 -81t-0.5 -86.5t1 -85.5t4 -78q1 -12 3.5 -24t3 -22.5t-3 -17t-14.5 -6.5q-19 0 -27.5 25t-11.5 57.5t-3 63
t-1 41.5q-2 24 -2 59.5t0.5 73.5t1.5 75t1 65q-20 10 -53 17t-62 7q-8 0 -18.5 -3t-20.5 -3q-15 0 -18 14q-4 17 14 24t36 16q22 12 40 23t40 25q11 6 18.5 11.5t18.5 12.5q8 5 11.5 9t4 8.5t0 11t-0.5 18.5l4 60q8 97 22 192t33 190l25 98q-7 -2 -15 -8.5t-14 -11.5
q-7 -8 -12.5 -12t-13.5 -11q-41 -37 -81 -91.5t-71.5 -115.5t-51 -122t-19.5 -112q0 -24 3 -31t8 -7q3 0 6.5 1.5t6.5 1.5q8 0 11.5 -5.5t1.5 -12t-10.5 -12t-23.5 -5.5t-22.5 11.5t-10 27t-2.5 31v24.5z" />
    <glyph glyph-name="S" unicode="S" horiz-adv-x="796" 
d="M274 -462q17 0 38 9t41 23t37.5 29.5t27.5 29.5q8 10 14 17t13 18q5 10 11 18.5t10 18.5q12 23 17.5 41.5t7 35.5t0.5 34.5t-3 38.5q-8 -2 -11.5 -5.5t-10.5 -8.5q-5 -5 -9 -7.5t-9 -6.5l-54 -48q-20 -19 -34 -32t-26.5 -25t-25 -26.5t-29.5 -37.5q-5 -7 -12.5 -18
t-14.5 -24t-12 -26t-5 -23q0 -18 7.5 -21.5t25.5 -3.5h6zM0 119q0 40 11 84t28.5 87.5t39.5 84.5t44 75q10 18 24 38.5t30.5 41t33 39.5t30.5 34q50 49 105.5 85.5t128.5 36.5q36 -3 62 -23t43 -51t25.5 -69t8.5 -77q0 -60 -12 -120t-26 -114q-5 -23 -10.5 -40.5
t-22.5 -17.5q-12 0 -12.5 19t3 43t9.5 46.5t8 29.5q5 32 10 68.5t5.5 73t-5 72.5t-21.5 66q-15 29 -36 40.5t-45 11.5q-21 0 -42.5 -7.5t-41.5 -18.5q-14 -9 -31.5 -20.5t-29.5 -23.5q-8 -7 -14 -11.5t-13 -12.5l-118 -141q-20 -31 -31.5 -51.5t-25.5 -46.5q-11 -17 -22 -41
t-21 -50.5t-17.5 -51.5t-10.5 -44q-3 -23 -4.5 -45t6.5 -44q7 -19 25 -29t40.5 -14.5t47 -5.5t44.5 -2q27 -1 49.5 -1.5t44.5 -2t44.5 -5t48.5 -12.5q15 -5 33 -14t34.5 -21.5t29.5 -27t17 -30.5q17 11 37.5 27.5t42.5 35t43 36.5t38 31l77 68q10 10 19 17t19 17
q17 18 25.5 24t14.5 6q4 0 7 -1t7 -2q0 -10 2 -12t1.5 -3.5t-7 -7t-23.5 -22.5q-33 -32 -60.5 -56t-58.5 -54l-64 -52q-8 -6 -24 -19t-33 -26.5t-30.5 -25.5t-16.5 -16q4 -16 7 -32.5t3 -35.5q0 -53 -25 -106.5t-62.5 -97t-81 -70.5t-80.5 -27q-10 0 -23.5 1.5t-24.5 6
t-19 13.5t-8 25q0 37 12 64t35 57q33 46 68.5 80t76.5 69l80 66q-27 51 -67.5 70.5t-100.5 26.5l-81 6q-48 1 -88 2t-74 14q-32 12 -48 41t-16 72z" />
    <glyph glyph-name="T" unicode="T" horiz-adv-x="660" 
d="M538 62q12 95 23 178t23.5 164t29 164.5t38.5 180.5q-22 0 -65 -7.5t-90 -17t-90 -19.5t-64 -15q-37 -10 -72 -19.5t-71 -20.5q-13 -4 -32 -10t-38 -13.5t-34.5 -16t-21.5 -17.5q4 -13 14.5 -20t21.5 -15l117 -85q81 -61 142 -134.5t99 -168.5q19 -46 28 -78t13.5 -55
t7 -40t8.5 -34l2 -5zM40 600q0 9 6 17t14.5 15.5t17.5 13t15 9.5l74 31q116 41 235.5 68t242.5 39q12 1 16 3.5t6 5.5t4 5t8 2q10 0 12.5 -1.5t3.5 -3t4 -3t13 -2.5h16q16 0 35 0.5t36 0.5h18q10 -1 39 -4t67 -8t80 -11.5t76.5 -14.5t57 -17.5t22.5 -19.5q0 -17 -11 -17
q-7 0 -17.5 2.5t-26.5 7.5q-30 7 -71 14.5t-84 13.5t-83.5 9.5t-68.5 3.5q-26 0 -46.5 -2t-48.5 -2q-1 -3 -5.5 -24.5t-9.5 -47t-9.5 -49t-5.5 -30.5l-54 -305q-14 -84 -23 -160.5t-20 -157.5q-3 -22 -4.5 -41t-4.5 -42l-33 -325q-1 -8 -1.5 -18.5t-2.5 -21t-6.5 -17.5
t-12.5 -7q-6 0 -9 3.5t-8 6.5l17 284q0 32 -3.5 68.5t-9 73t-13 71t-15.5 64.5q-12 42 -26 76.5t-31 65.5t-37 60t-44 59q-16 20 -37 39.5t-44.5 38t-46.5 35.5t-43 32l-91 65q-11 8 -20 19t-9 30z" />
    <glyph glyph-name="U" unicode="U" horiz-adv-x="712" 
d="M11 -65q0 66 9.5 131.5t20.5 123.5q24 134 65 272.5t102 259.5q8 16 20.5 34t33.5 18q15 0 15 -15t-8.5 -26.5t-14.5 -25.5q-16 -34 -34 -81t-35 -97.5t-31 -98.5t-22 -85q-14 -63 -27.5 -120.5t-23.5 -115.5t-16 -119t-6 -130q0 -27 4 -68.5t15.5 -81t32 -68t54.5 -28.5
q21 0 37 4.5t29.5 13.5t25.5 22t27 30q42 50 76 117.5t63 127.5q5 8 7.5 14t6.5 14q11 23 27.5 61t36.5 83.5t40.5 94t38.5 94t32.5 84t21.5 62.5q6 18 9 33.5t24 15.5q3 0 8.5 -5.5t5.5 -11.5q0 -9 -2 -25.5t-4 -35.5t-4.5 -37t-4.5 -29l-27 -332q-4 -27 -2.5 -70.5
t5.5 -90.5t9.5 -91t9.5 -72q2 -16 5.5 -32t5 -28.5t-0.5 -20t-10 -7.5q-20 0 -25 21t-10 50q-7 44 -12.5 72.5t-9 49.5t-6 39.5t-4 41.5t-2 55t-0.5 81q0 76 7.5 137t12.5 129q-1 -2 -1.5 -2t-2.5 -3l-8 -19q-3 -7 -5 -12.5t-5 -12.5q-5 -14 -10 -25.5t-11 -25.5l-156 -346
q-17 -35 -41.5 -79t-55 -83t-68 -65.5t-80.5 -26.5q-42 0 -74.5 29t-46.5 64q-15 36 -22.5 68t-10.5 64t-3 65.5v71.5z" />
    <glyph glyph-name="V" unicode="V" horiz-adv-x="439" 
d="M31 866q5 4 8 7.5t9 3.5q14 0 20 -12t9 -30t4 -38t3 -36q2 -13 3 -38.5t1.5 -54t0.5 -55v-43.5q0 -93 -5 -197t-8.5 -209.5t-2.5 -208t14 -191.5q2 -12 6.5 -42t12.5 -61.5t19.5 -57.5t25.5 -30q12 8 23.5 32t21 53t17.5 57.5t14 46.5l144 469q11 34 20.5 67.5t20.5 66.5
q4 13 15.5 54t26 85.5t29.5 79.5t26 35q14 0 17 -8t-1 -18q-12 -29 -19.5 -49t-16.5 -53q-9 -32 -20 -68.5t-23 -74t-23 -74t-20 -69.5l-43 -142q-35 -103 -65.5 -213t-65.5 -213q-6 -17 -13 -35.5t-17 -34t-23.5 -25.5t-31.5 -10q-19 0 -35 20.5t-29 53t-23 72.5
t-16.5 78.5t-10 71.5t-3.5 52l-7 144q0 154 8.5 300t8.5 298q0 58 -3 123.5t-3 120.5z" />
    <glyph glyph-name="W" unicode="W" horiz-adv-x="790" 
d="M637 798q0 5 7 8.5t12 5.5q8 -8 16.5 -33t15.5 -53t12 -53t6 -34q11 -63 20.5 -124t9.5 -124q-1 -18 1 -27.5t2 -26.5l-1 -65q0 -3 0.5 -4t-0.5 -6q-6 -83 -13 -154.5t-19 -139t-31.5 -135.5t-50.5 -146q-7 -18 -21 -45t-30.5 -54.5t-34 -51.5t-32.5 -36
q-20 -16 -42 -28.5t-46 -12.5q-32 0 -60.5 22.5t-43.5 49.5q-25 40 -39.5 102t-22 130t-9 133t-1.5 110q0 15 1.5 22t1.5 21q0 20 -1 44.5t1 44.5q2 11 2.5 20t0.5 23q0 9 1 23.5t2.5 32t2.5 36t1 34.5l-5 -8q-1 -3 -1 -4.5t-2 -5.5l-83 -252q-9 -26 -20.5 -62.5
t-24.5 -74.5t-25 -72.5t-22 -55.5q-9 -18 -14 -30t-10 -19t-12.5 -9.5t-19.5 -2.5q-9 0 -14 12t-7.5 27.5t-3 30t-0.5 18.5q1 11 0 14.5t1 14.5q4 36 4.5 70t5.5 69q6 39 10 69.5t8.5 59t10 59.5t13.5 71l15 62l8 32l77 257l6 15t6 13q16 38 23.5 52.5t22.5 14.5q7 0 17 -3
q3 -13 3.5 -19.5t-1 -10t-4.5 -5.5t-6 -7q-5 -5 -14 -29t-18.5 -52.5t-17.5 -55t-11 -35.5q-7 -26 -14 -51.5t-15 -52.5l-37 -161q-8 -45 -14 -78.5t-11 -65t-9.5 -65t-10.5 -78.5q-4 -29 -5 -60t-1 -66l7 15q8 18 17.5 42t18.5 49.5t17.5 50t14.5 43.5l134 410
q5 16 11.5 34.5t20.5 22.5q3 1 7 1q14 0 18.5 -17.5t5.5 -41t-1 -47.5t-2 -38l-10 -172q-2 -20 -1 -45t1 -46q0 -10 -1 -22.5t-1 -19.5v-13.5t-0.5 -7.5t-0.5 -10.5t1 -22.5q2 -21 1.5 -57t2.5 -65q2 -19 3 -33.5t2 -29.5t3 -32t7 -40q4 -20 11.5 -52t20 -62t32 -51.5
t47.5 -21.5q36 0 69.5 38t61.5 90.5t48.5 106t29.5 85.5q19 63 33.5 132t23.5 140q13 109 14.5 227t-14.5 227q-5 31 -10.5 56.5t-10.5 49l-10 47t-10 50.5q-2 14 -5 25.5t-3 25.5z" />
    <glyph glyph-name="X" unicode="X" horiz-adv-x="656" 
d="M356 37q4 3 18.5 29.5t31.5 58.5t32 61.5t20 38.5q7 13 12 24.5t12 24.5l242 481q11 23 19.5 31.5t14.5 8.5q8 0 12.5 -8t3.5 -13q0 -8 -6.5 -27.5t-15.5 -41.5t-17.5 -42.5t-12.5 -29.5l-233 -464q-4 -9 -21 -40.5t-35.5 -67t-33.5 -64t-15 -30.5q0 -11 15.5 -47.5
t39.5 -85t53.5 -104t57.5 -105.5t50.5 -88.5t33.5 -52.5q3 -3 8.5 -11t8.5 -16.5t0 -15t-17 -6.5q-10 0 -23 13t-25 30t-22.5 34t-16.5 26q-34 57 -67.5 121.5t-63.5 124.5l-60 126q-5 -4 -12 -16t-11 -20l-70 -130q-4 -7 -5.5 -9t-5.5 -9q-35 -64 -72 -127.5t-69 -129.5
q-10 -20 -18.5 -38.5t-18.5 -37.5q-5 -10 -8.5 -19.5t-7.5 -20.5q-5 -13 -11 -18.5t-11 -5.5q-9 0 -13.5 11.5t1.5 31.5q5 16 19 48t33.5 71.5t42 82.5t43 82.5t37 70.5t23.5 46l75 144q4 6 10 15.5t10.5 20t6.5 20t-1 17.5l-29 80q-13 33 -27 78.5t-26 93.5t-21 94.5
t-14 82.5q0 5 -3 31.5t-6 64t-5 80t0 78.5t8 59.5t19 23.5q17 0 17 -11v-31v-53l4 -102q0 -35 6.5 -84t16.5 -100t21.5 -98t20.5 -79z" />
    <glyph glyph-name="Y" unicode="Y" horiz-adv-x="702" 
d="M20 -51q0 80 14.5 182.5t39.5 208.5t58.5 206.5t71.5 175.5q15 29 25 50.5t34 26.5l10 -8q2 -2 2 -3h1q2 0 1.5 0.5t-0.5 -7.5q0 -1 -5 -15t-11 -30.5t-12 -31.5t-8 -19q-36 -101 -66 -199.5t-51.5 -197.5t-33 -201.5t-11.5 -210.5q0 -30 5 -70t16.5 -75.5t30 -60
t45.5 -24.5q23 0 46.5 18t44.5 43t38.5 52t27.5 44q40 70 70 139t59 144q62 155 105.5 316t82.5 323q5 19 9.5 33t19.5 14q6 0 18 -5q3 -13 3 -40t-2 -61.5t-5 -73t-6.5 -74t-7 -64.5t-5.5 -44q-8 -71 -15.5 -148t-17.5 -149q-12 -84 -27.5 -185.5t-37 -204t-51.5 -197.5
t-70 -165l-42 -69q-7 -7 -16 -7q-13 0 -13 14q0 9 7 27t16 37.5t18.5 38t14.5 29.5q22 50 41.5 119t36 148.5t30.5 165t25.5 167.5t20.5 157t15 133l18 158q-2 -3 -1.5 -1t-1.5 -6l-36 -122q-11 -37 -33.5 -107t-53 -153t-68.5 -169.5t-80.5 -156.5t-88 -115t-91.5 -45
q-28 0 -52 17q-31 20 -51 60t-31 87.5t-15 95.5t-4 85z" />
    <glyph glyph-name="Z" unicode="Z" horiz-adv-x="958" 
d="M40 451q0 18 17 38.5t40 41t48 37.5t41 27q21 16 46 26q59 32 137.5 64t163 57t168 40.5t152.5 15.5q37 0 70 -5.5t58.5 -19.5t40.5 -37t15 -58t-15.5 -77t-38 -83t-46 -76.5t-40.5 -57.5q-42 -59 -87 -114.5t-93 -110.5l-26 -29q-8 -10 -17 -17.5t-20 -23.5
q-9 -10 -33.5 -34.5t-53 -51.5t-55.5 -51.5t-41 -36.5q-7 -6 -13 -13q-9 -6 -15.5 -11.5t-14.5 -11.5q-27 -22 -43.5 -35.5t-32 -24.5t-33 -23t-46.5 -31l-32 -22q66 0 133 -7t122 -20l176 -39q5 -2 12 -5t10 -10q3 -8 -0.5 -12.5t-11.5 -4.5t-22 2t-29.5 5t-29.5 5.5
t-23 4.5q-26 6 -49 9.5t-48 8.5q-48 8 -100.5 16t-106.5 8q-18 0 -33 0.5t-29 0.5q-23 0 -43.5 -3t-45.5 -12q-41 -16 -56 -16q-11 0 -15 5.5t-9 14.5q14 25 37 29.5t55 13.5q26 7 58.5 26t66.5 42.5t65 47.5t52 41q11 8 19.5 15t18.5 17l87 77q5 5 8 8.5t8 8.5
q10 10 26 25.5t32.5 32t32 32.5t23.5 26l81 87q5 6 7 9.5t7 9.5l104 127q12 15 31.5 42t41 60t42 69.5t33 70.5t15 63t-12.5 47q-17 20 -50 27t-71 7q-43 0 -84.5 -5.5t-65.5 -9.5q-140 -23 -274 -73.5t-255 -121.5q-7 -4 -11 -6t-9 -7q-8 -6 -18.5 -14t-21.5 -17
t-20.5 -17.5t-14.5 -15.5q-9 -11 -12 -18.5t-4 -12t-2.5 -6.5t-7.5 -2q-13 0 -16.5 6.5t-3.5 15.5z" />
    <glyph glyph-name="bracketleft" unicode="[" horiz-adv-x="174" 
d="M32 -121q0 13 2.5 40.5t6 58t7 59.5t5.5 46q5 29 7.5 68t6.5 69l17 133q13 94 33 186t43 184q5 20 10.5 44t14.5 44.5t23.5 34.5t37.5 14q6 0 12 0.5t11 0.5q11 0 19 -3t8 -14q0 -6 -5 -8t-10 -2q-19 0 -30 -2t-17.5 -8.5t-10 -18t-6.5 -30.5l-64 -313q-7 -37 -14 -79
t-13 -85.5t-11.5 -85.5t-10.5 -79q-1 -8 -4.5 -29t-7.5 -48.5t-8 -58t-7.5 -57t-6 -46.5t-2.5 -26q0 -19 1.5 -29t17.5 -16q20 -8 35 -8q10 0 17.5 2.5t17.5 5.5q2 0 2.5 0.5t2.5 0.5q11 0 8 -12t-26 -18q-7 -2 -14 -3t-15 -1q-17 0 -33.5 4t-27.5 11q-19 12 -20.5 32.5
t-1.5 41.5z" />
    <glyph glyph-name="backslash" unicode="\" 
d="M279 -88q-9 5 -10.5 7.5t-6.5 13.5q-7 14 -15.5 39.5t-14.5 42.5l-111 335q-10 29 -18.5 56.5t-18.5 56.5l-37 111q-2 9 -4.5 15.5t-4.5 14.5t-4 14t-4 14q-4 12 -10 35.5t-12 47.5t-11 42.5t-6 20.5q-4 11 -1 16t9 5q11 0 19.5 -11t15.5 -26.5t12.5 -31.5t8.5 -26
q17 -53 34 -111.5t33 -112.5l34 -111q8 -29 17 -56.5t17 -55.5t16.5 -56t17.5 -55q5 -14 8.5 -28t8.5 -28l35 -111q6 -20 10 -31.5t5 -18.5t-1.5 -10t-10.5 -7z" />
    <glyph glyph-name="bracketright" unicode="]" horiz-adv-x="185" 
d="M95 854q8 2 11 2q7 0 13.5 -1t13.5 -1h5q11 0 21.5 -1t18.5 -5q16 -9 21 -31t3 -36q-3 -24 -4.5 -43.5t-3 -38.5t-3.5 -39.5t-6 -46.5l-36 -239q-4 -20 -6.5 -39t-6.5 -39q-7 -41 -13 -80t-12 -79q-5 -27 -10 -64t-11 -75t-14 -72.5t-20 -56.5q-7 -13 -24.5 -29
t-38 -30.5t-40 -24.5t-31.5 -10q-5 0 -11.5 3t-6.5 8q0 6 2.5 7t9 1.5t17 4t25.5 15.5q27 20 44.5 37t28.5 49q8 25 15.5 71t14 98t12 101t9.5 80l41 280q2 17 5 34.5t5 34.5q2 13 4.5 32.5t5.5 40t5 39.5t2 31l2 73q-8 1 -18.5 3t-17.5 4q-22 6 -22.5 14t1.5 18z" />
    <glyph glyph-name="asciicircum" unicode="^" horiz-adv-x="211" 
d="M39 541q0 5 4.5 19.5t6.5 19.5q3 8 7 16.5t8 16.5q4 7 7.5 15.5t9 16t12.5 12.5t17 5q11 0 19 -8.5t14 -20.5t10 -24.5t6 -20.5q2 -7 3.5 -17.5t-8.5 -10.5q-14 0 -19 13t-13 28q-2 5 -3.5 7.5t-3.5 8.5q-5 -5 -8 -11.5t-6 -13.5q-3 -5 -8.5 -17t-12.5 -24t-13.5 -21
t-10.5 -9q-18 0 -18 20z" />
    <glyph glyph-name="underscore" unicode="_" horiz-adv-x="617" 
d="M577 -140q-1 -7 -9 -7q-3 0 -15 2h-8q-15 0 -52.5 -0.5t-86 -1.5t-101 -2t-97 -2t-76 -2t-36.5 -1q-6 -1 -13 -1.5t-15 -0.5q-14 0 -20 5q-12 11 -3.5 20.5t19.5 11.5q4 1 29.5 2t64 2t86.5 1.5t96 0.5q42 0 82 -0.5t71.5 -2t52.5 -3.5t25 -5q8 -7 7.5 -8.5t-1.5 -7.5z
" />
    <glyph glyph-name="grave" unicode="`" horiz-adv-x="158" 
d="M33 630q0 5 4.5 10.5t9.5 5.5q10 0 17 -6.5t13 -16.5t12 -21t12 -20q4 -6 10 -18t-3 -21q-7 -5 -10 -5q-7 0 -18.5 12.5t-21.5 28t-17.5 30.5t-7.5 21z" />
    <glyph glyph-name="a" unicode="a" horiz-adv-x="290" 
d="M0 101q0 21 10.5 52.5t28 61t41 50t49.5 20.5q18 0 31 -9t20 -19.5t6.5 -19.5t-10.5 -9q-11 0 -21 11.5t-24 11.5q-11 0 -26.5 -13t-37.5 -51q-10 -16 -18.5 -41.5t-8.5 -50.5q2 2 1.5 1t3.5 4l8 12q8 12 18.5 31.5t21 38t20 32.5t14.5 14q13 0 17.5 -7.5t5.5 -19.5
t1 -27t3 -29q6 -27 18.5 -39.5t28.5 -12.5q28 0 62 34q14 13 19.5 21.5t16.5 19.5q7 10 18 10q6 0 9 -4.5t1 -14t-11.5 -23.5t-28.5 -32l-30 -24q-29 -20 -56 -20q-19 0 -34 9t-25.5 22.5t-16.5 30.5t-6 33q-7 -5 -16 -22.5t-19.5 -36t-21.5 -33.5t-22 -15q-28 0 -34 13
t-6 40z" />
    <glyph glyph-name="b" unicode="b" horiz-adv-x="355" 
d="M46 -123q23 0 42 13t35 31.5t28.5 40t21.5 38.5q-5 -2 -17 -7.5t-25.5 -13t-25.5 -14.5t-17 -10q-13 -8 -28.5 -21.5t-25 -26t-8.5 -21.5t20 -9zM14 63q0 38 3 94.5t9 116.5t16 115.5t24 90.5q8 20 15 27.5t13 7.5q7 0 11 -7t3 -12q0 -2 -2.5 -10.5t-3.5 -15.5
q-8 -31 -17 -82.5t-16.5 -107t-12 -107t-4.5 -81.5l22 36q8 17 23 34q16 22 35.5 34.5t39.5 12.5q32 0 51 -34q17 -33 14 -59t-3 -49q14 8 23.5 12.5t18 9.5t18 11t22.5 16q7 5 18 14.5t22 18.5t19.5 16t11.5 7q15 0 16 -6.5t-4.5 -14.5t-13 -15t-9.5 -8q-11 -12 -23 -21
t-24 -20q-12 -9 -29.5 -19t-34 -20t-29 -17.5t-14.5 -10.5q-3 -5 -9.5 -23t-18.5 -41t-31 -46.5t-47 -40.5q-35 -22 -71 -22q-21 0 -36 10.5t-15 33.5q0 22 20.5 43.5t48.5 40.5t57.5 34.5t47.5 24.5q14 7 17.5 9t7.5 19q5 21 6 41.5t-2 36.5t-10.5 26t-18.5 10
q-19 0 -48 -33q-19 -23 -31.5 -49t-22 -48.5t-16.5 -37.5t-14 -15q-10 0 -15 7t-6.5 17.5t-1 23t0.5 22.5z" />
    <glyph glyph-name="c" unicode="c" horiz-adv-x="242" 
d="M0 137q0 18 7.5 42.5t21 47t32 38t40.5 15.5q32 0 32 -40q0 -26 -13 -26q-15 0 -18 26q-13 -9 -25.5 -28.5t-20 -42.5t-8.5 -47.5t8 -42.5q5 -14 14.5 -22.5t27.5 -8.5q26 0 49 11.5t43.5 29t37.5 38.5t31 40q11 15 20 15q7 0 10 -7t-2 -17q-4 -11 -15 -24.5t-24 -27
t-25.5 -25.5t-21.5 -20q-21 -20 -48 -33t-56 -13q-26 0 -44.5 10t-30 27t-17 39t-5.5 46z" />
    <glyph glyph-name="d" unicode="d" horiz-adv-x="224" 
d="M35 73q0 -9 4 -9q8 0 24 31t32 69t28 71.5t12 39.5q-17 -2 -26.5 -10.5t-17.5 -19.5q-26 -32 -41 -78.5t-15 -93.5zM149 302q0 11 3.5 19t6.5 18l21 113q2 8 5 23.5t8 31t11.5 28t15.5 14.5q2 0 3 0.5t2 0.5q14 0 15.5 -16t-2.5 -37t-10.5 -41.5t-8.5 -29.5
q-18 -61 -26 -124.5t-10 -127.5t-0.5 -128t2.5 -127q0 -24 3.5 -41t5 -27t-1.5 -14.5t-17 -4.5q-11 0 -17.5 25t-9.5 63.5t-3 84.5t1 88t2 73.5t1 41.5l-5.5 -5.5t-2.5 -7.5l-35 -85q-5 -12 -11.5 -26t-15 -26t-19.5 -20.5t-25 -8.5q-21 0 -28.5 20.5t-4.5 51t14.5 66.5
t29 66.5t39 51t44.5 20.5q8 0 8.5 -1.5t11.5 -1.5z" />
    <glyph glyph-name="e" unicode="e" horiz-adv-x="217" 
d="M46 181q9 5 20.5 12t21.5 15.5t17 19t8 22.5q-10 -2 -21 -9.5t-20 -17.5t-16 -21.5t-10 -20.5zM1 157q0 19 10 40.5t25 40t34 31t37 12.5q33 0 34.5 -25t-21.5 -54q-12 -14 -36 -30.5t-47 -18.5q0 -16 1 -28.5t14 -25.5t33 -13q13 0 27 5t27 11.5t24.5 14t18.5 13.5
q6 5 9.5 8t8.5 7q15 12 21.5 19t10 11t8 5t15.5 1q2 -11 1.5 -15t-7.5 -12q-14 -14 -33 -31t-41.5 -32t-46 -25t-46.5 -10q-34 0 -58 24q-18 18 -20.5 37t-2.5 40z" />
    <glyph glyph-name="f" unicode="f" horiz-adv-x="198" 
d="M31 -156q0 -11 1.5 -34.5t6 -48t13 -44t21.5 -22.5q8 5 16.5 19t15 31.5t11 35.5t4.5 32v38q0 17 -8.5 34.5t-21 32t-28.5 24t-31 9.5v-107zM-129 -53q0 9 11 16.5t25.5 12.5t29.5 8t24 4q16 2 19 2.5t5 17.5q2 30 11.5 79t23 101t29 96.5t30.5 65.5q13 16 27 16
q7 0 12 -5.5t5 -18.5q0 -18 -2 -21t-6 -5t-10 -10t-14 -37q-7 -27 -12.5 -44.5t-9.5 -34t-8.5 -35t-10.5 -47.5q-3 -17 -6.5 -42.5t-5.5 -43.5q6 2 21 12t32.5 23t33.5 26t24 20l73 69q7 5 14 5q11 0 11 -12q0 -7 -9 -18.5t-21 -23t-23.5 -21.5t-17.5 -15l-135 -105
q44 -10 69 -36.5t35 -62.5t6 -78t-20 -83q-8 -21 -23 -43.5t-42 -22.5q-19 0 -32.5 16t-23 40.5t-15.5 54.5t-9.5 58t-5 51t-2.5 33q-1 9 1 18.5t2 23.5q-17 -4 -38.5 -16t-50.5 -12q-18 0 -19.5 7t-1.5 17z" />
    <glyph glyph-name="g" unicode="g" horiz-adv-x="279" 
d="M0 -369q20 0 40 20t31 37q17 29 27.5 60.5t16.5 64t9.5 64.5t7.5 63l4 58q-5 -2 -13.5 -10.5t-17.5 -19t-16.5 -21t-10.5 -14.5q-8 -11 -20 -27t-24 -34.5t-23 -36.5t-17 -32q-4 -10 -15 -38t-16 -58t1 -53t36 -23zM-11 85q0 24 15 57.5t38 63.5t51 51t55 21
q28 0 39.5 -20t-1.5 -40q-9 1 -13 6t-7 11t-7 11t-12 5q-21 0 -44 -20.5t-42.5 -49.5t-32 -60t-12.5 -52q18 5 32 20.5t24 25.5q10 11 22.5 28t21.5 30q5 8 13 20t20 12q11 0 17 -13.5t8 -32t2 -38.5v-33q8 2 25 15.5t36.5 29.5t39 28.5t32.5 12.5q6 0 8 -6.5t-1 -12.5
q-1 -1 -14.5 -11.5t-31.5 -24t-36 -27.5t-27 -23q-8 -7 -17 -12t-11 -18q-3 -28 -3 -53q0 -30 -4.5 -68.5t-12.5 -77.5t-18.5 -74t-22.5 -59q-29 -57 -60.5 -80.5t-57.5 -23.5q-28 0 -46 20.5t-18 50.5q0 24 2 42.5t7 35t12 33.5t18 38q30 61 67.5 111t83.5 99
q13 14 11.5 46.5t-1.5 63.5q-8 -3 -22.5 -24.5t-31.5 -36.5q-11 -11 -29 -27t-37 -16q-11 0 -17 5t-8 12t-2 15v14z" />
    <glyph glyph-name="h" unicode="h" horiz-adv-x="305" 
d="M0 196q4 52 10 102.5t17 101.5q3 14 6 23.5t6 21.5q7 20 10.5 26.5t11.5 6.5q3 0 7 -0.5t9 -1.5q5 -23 -2 -54.5t-11 -57.5q-11 -69 -18 -152t-7 -158l3 -112l8 19q10 30 17.5 52t16 42.5t19 42.5t26.5 51q11 20 21 34t33 14q8 0 12.5 -10t6.5 -23t2.5 -26t0.5 -20
q0 -29 1.5 -48t11.5 -38q11 3 21 11t18 18.5t15.5 22t13.5 20.5q7 11 13 22t12 23q9 16 14.5 22t11.5 6q3 0 11 -2q5 -18 -2 -29t-15 -26q-7 -13 -19 -33.5t-27 -40t-32 -33t-35 -13.5q-33 0 -43 59q-3 17 -4 45.5t-1 49.5q-7 -5 -17 -23.5t-20 -40t-18.5 -43t-13.5 -32.5
q-12 -32 -19.5 -62.5t-16.5 -58.5q-5 -16 -11.5 -20.5t-20.5 -4.5q-13 0 -21 29t-12 66.5t-5 72.5t-1 46z" />
    <glyph glyph-name="i" unicode="i" horiz-adv-x="228" 
d="M83 -4q-20 0 -35.5 13t-23.5 27q-18 34 -20.5 80.5t5.5 84.5q1 8 3.5 19t6.5 21.5t10 18t13 7.5q17 0 20 -8.5t0 -26.5t-8.5 -46t-5.5 -66q0 -11 2 -26.5t6.5 -29.5t12 -23.5t17.5 -9.5q12 0 27 8.5t29 20.5t25.5 24t17.5 19q2 2 11 14t21 26t24.5 25t19.5 11t7 -12
q0 -7 -9.5 -21.5t-22.5 -30.5t-25.5 -30t-18.5 -20q-9 -9 -20.5 -21t-25.5 -22.5t-29.5 -18t-33.5 -7.5zM51 393q0 17 9 29.5t20 12.5q12 0 20 -15q14 -28 3.5 -43.5t-25.5 -15.5q-11 0 -19 7.5t-8 24.5z" />
    <glyph glyph-name="j" unicode="j" horiz-adv-x="197" 
d="M-176 -374q0 -33 15 -59t41 -26q17 0 35.5 13.5t39.5 45.5q24 37 38.5 83t23 97t11.5 104t3 105q-12 -8 -30 -26t-37 -39.5t-36 -43t-27 -35.5q-17 -26 -31.5 -50t-24.5 -49.5t-15.5 -54.5t-5.5 -65zM24 413q0 11 9 22.5t19 11.5q7 0 12 -8t5 -28q0 -10 -8.5 -17
t-17.5 -7q-8 0 -13.5 6t-5.5 20zM-203 -347q0 35 13.5 75t34.5 79t47 74t51 60l72 72q8 8 11 10.5t4 5t0 7t-2 15.5q-2 14 -0.5 28.5t-0.5 28.5q0 4 -1 21.5t-2 36.5t-2 35t-1 17q-3 7 -5 7q-5 0 -7 0.5t-6 4.5t-4 11.5t4 15t12.5 13.5t20.5 6q13 0 21 -28.5t12 -65t5 -70.5
t1 -46l80 63q5 4 15 12.5t20.5 16.5t21 14.5t17.5 6.5q8 0 8 -11q0 -10 -2 -10t-7 -5l-30 -24q-10 -8 -27 -22t-34.5 -28t-33.5 -27t-25 -19q0 -62 -2.5 -115t-9.5 -101t-19 -92t-31 -88q-8 -20 -21 -42t-30.5 -40.5t-38.5 -31t-45 -12.5q-17 0 -29.5 7t-23.5 19
q-24 26 -27.5 55t-3.5 61z" />
    <glyph glyph-name="k" unicode="k" horiz-adv-x="227" 
d="M0 76q0 72 3.5 144t9.5 139q1 9 5.5 47t12 80.5t18 76.5t23.5 34q15 0 19.5 -6t4 -17t-4.5 -25.5t-7 -31.5q-10 -55 -18.5 -118.5t-14.5 -127.5t-9 -126t-3 -115q2 2 12 22t25.5 49t33.5 63t35.5 63t32.5 48t23 19q16 0 18 -6t-4 -16.5t-17.5 -26t-22.5 -33.5
q-4 -6 -7.5 -11.5t-7.5 -11.5q-7 -11 -10.5 -18t-4 -15t0.5 -20t3 -33q2 -16 6 -39t10 -47.5t12 -47t12 -37.5q8 -19 14 -28t8 -19q-4 -5 -8 -9t-10 -4q-2 0 -8 2q-9 4 -16 14t-12.5 22t-9 24.5t-6.5 21.5q-11 33 -18 67t-15 69l-44 -96q-6 -17 -10 -34.5t-8.5 -32.5
t-9.5 -24.5t-13 -9.5q-10 0 -14 5.5t-5 14.5t-0.5 19.5t-0.5 19.5q-1 11 -2 17t-1 20v85z" />
    <glyph glyph-name="l" unicode="l" horiz-adv-x="176" 
d="M2 77q0 37 3.5 79.5t9.5 86t14 85t17 75.5q3 11 7 24.5t9 25.5t11.5 20.5t16.5 8.5q12 0 15 -9t0.5 -21t-6.5 -23t-5 -15q-7 -25 -15.5 -66t-17 -89t-14.5 -99.5t-8 -98.5t1.5 -85.5t14.5 -59.5q17 9 28 27t19 35q23 44 45 93t46 92q8 16 17 16q4 0 6.5 -3.5t2.5 -7.5
q0 -2 -5 -12.5t-11 -23t-12 -23.5t-8 -15q-8 -16 -17 -36.5l-18 -41t-18 -39.5t-17 -33q-4 -6 -9.5 -15.5t-12.5 -18.5t-15.5 -15t-17.5 -6q-20 0 -31.5 20t-17 49.5t-6.5 62t-1 56.5z" />
    <glyph glyph-name="m" unicode="m" horiz-adv-x="467" 
d="M219 226q11 2 26.5 18.5t29.5 28.5q7 8 12.5 13.5t13.5 10.5q10 5 18 5q10 0 17 -8t7.5 -30t-1 -49t-4 -55.5t-2.5 -49.5q0 -46 7.5 -64.5t20.5 -18.5q11 0 24.5 12t27.5 30t27 38t23 36q7 11 13 22t23 11q3 0 6.5 -4t3.5 -9q0 -4 -3.5 -12t-8.5 -16t-9.5 -15.5
t-7.5 -11.5q-5 -7 -7.5 -12t-7.5 -13q-5 -6 -8.5 -10.5t-8.5 -12.5q-20 -29 -46 -49.5t-51 -20.5q-14 0 -27 9t-21 31q-11 27 -12.5 58t1 61t6.5 57.5t4 49.5q-7 -5 -17.5 -16t-21.5 -22t-22.5 -19.5t-21.5 -8.5q-23 0 -31.5 21.5t-8.5 44.5q-17 -11 -32.5 -39.5t-31 -58
t-31 -53t-32.5 -24.5h-2q-17 0 -26 15.5t-10.5 38.5t2 50t10.5 50t16 38.5t18 15.5q19 0 22 -8.5t-1.5 -26.5t-11 -45.5t-6.5 -65.5l1 2h1l3 3l47 79q4 7 11 19t16 23t18.5 19.5t18.5 8.5q23 0 30 -23.5t7 -47.5z" />
    <glyph glyph-name="n" unicode="n" horiz-adv-x="300" 
d="M28 52q-16 0 -22 17t-5.5 42.5t7 55.5t16 55.5t20.5 42.5t20 17q17 0 15.5 -16t-9.5 -41t-17.5 -55.5t-9.5 -59.5l48 73q2 4 8.5 14.5t15 21t18 18.5t18.5 8q12 0 19 -16l6 -56q0 -9 1 -28t4.5 -38t11.5 -33.5t22 -14.5q15 0 31.5 18.5t32 41t28 41t19.5 18.5
q15 0 13.5 -11.5t-9.5 -26.5t-18 -28t-12 -16q-5 -7 -13.5 -17t-18 -19.5t-19 -17.5t-18.5 -10q-10 -3 -19 -3q-23 0 -36.5 17t-20.5 37q-7 23 -9.5 41.5t-2.5 33.5v26t-3 18q-12 -8 -25.5 -32.5t-28 -50.5t-29 -46.5t-29.5 -20.5z" />
    <glyph glyph-name="o" unicode="o" horiz-adv-x="176" 
d="M50 23q15 4 27 27t17 51t2.5 53t-15.5 34q-3 -11 -11 -31.5t-15.5 -44.5t-10 -48t5.5 -41zM0 57q0 17 8.5 52t23 70t32.5 61.5t36 26.5q10 0 14 -9t2 -15q-2 -5 -7.5 -10t-9.5 -11q2 -7 10 -15t15.5 -23t10.5 -38.5t-5 -62.5q-11 -52 -35 -78t-47 -26q-20 0 -34 19.5
t-14 58.5z" />
    <glyph glyph-name="p" unicode="p" horiz-adv-x="280" 
d="M69 -62q12 7 25.5 19t25.5 26.5t20.5 29t11.5 25.5l-50 -43q-9 -9 -14 -13.5t-8 -9.5t-5.5 -12.5t-5.5 -21.5zM94 26q5 3 6 4.5t5 5.5q5 3 6 4t5 4q22 19 33.5 27.5t16 15t5 14.5t0.5 25q0 23 -9 23q-7 0 -18.5 -14t-22 -33.5t-18.5 -40.5t-9 -35zM0 4q0 10 1.5 36.5
t4.5 61t8 71.5t11.5 68t15 51t19.5 20q7 0 14 -4q2 -9 3 -13t0 -8t-2.5 -10.5t-4.5 -18.5q-14 -72 -20.5 -140t-6.5 -143q6 4 12 21t13.5 39.5t16.5 48t20.5 47t25.5 35.5t31 14q22 0 32.5 -20.5t10.5 -41.5q6 2 14 7.5t14 9.5q7 5 17 12.5t20 14t19 11.5t15 5q9 0 9 -12
q0 -5 -15.5 -17t-35 -25.5t-37 -26t-22.5 -18.5q-3 -4 -9 -23t-18 -43.5t-31.5 -50.5t-50.5 -44q-6 -3 -13.5 -6t-12.5 -7q-6 -3 -9.5 -16t-6 -28t-3.5 -29.5t-1 -21.5q0 -14 2 -30t2.5 -29.5t-2 -22.5t-10.5 -9q-11 0 -13 6.5t-4 20.5q-9 63 -16 128.5t-7 129.5z" />
    <glyph glyph-name="q" unicode="q" horiz-adv-x="389" 
d="M-16 58q0 32 17 79t43 90.5t57.5 74.5t59.5 31q23 0 35.5 -10t16 -22t0 -22t-14.5 -10q-2 0 -2.5 0.5t-2.5 0.5q-11 3 -13.5 9t-11.5 6q-16 0 -41 -28t-47.5 -67.5t-39 -83t-16.5 -73.5q12 3 35 31.5t48.5 61.5t48.5 60t34 27q13 0 18 -6t6 -15t-1 -19t-4 -18
q-6 -29 -16 -74.5t-20.5 -98t-19.5 -108t-13.5 -105.5t-2.5 -90t13 -62q14 10 23.5 28.5t17.5 35.5q3 7 18 46.5t36 95t46.5 118.5t49.5 116t44.5 88t31.5 35q10 0 12.5 -1.5t2.5 -11.5q0 -4 -10 -25t-22.5 -46l-23.5 -47t-14 -29l-34 -75q-26 -63 -46.5 -118.5
t-43.5 -115.5q-7 -19 -15.5 -41.5t-19.5 -42t-24.5 -32.5t-31.5 -13q-23 0 -35.5 24.5t-16.5 62t-2.5 82t5.5 84t8.5 69t5.5 37.5q5 32 9.5 54.5t10 42.5t11 40.5t11.5 48.5q-10 -8 -17.5 -17t-15.5 -19q-11 -13 -23.5 -31t-25.5 -33.5t-27 -26.5t-28 -11q-12 0 -19 7.5
t-10 18.5t-3.5 22.5t-0.5 20.5z" />
    <glyph glyph-name="r" unicode="r" horiz-adv-x="163" 
d="M14 4q-7 0 -10 8t-3.5 17.5t0.5 18.5t1 12q-1 18 -0.5 36.5t-0.5 37.5q0 7 0.5 27t3 41t7.5 37.5t13 16.5q20 0 20.5 -13t-1.5 -34q-1 -8 -1 -16v-16q0 -11 -1 -13.5t-1 -12.5q11 8 20 18.5t32 10.5q7 0 18.5 0.5t24.5 0.5q22 0 41 -2.5t19 -12.5q0 -11 -10.5 -13.5
t-25.5 -2.5q-10 0 -20.5 0.5t-18.5 0.5q-14 0 -23 -0.5t-15 -3t-10.5 -7.5t-10.5 -15q-8 -13 -14 -28t-9 -33q-2 -10 -2 -20.5t-1 -19.5t-5.5 -14.5t-16.5 -5.5z" />
    <glyph glyph-name="s" unicode="s" horiz-adv-x="289" 
d="M12 -165q0 -21 13 -21q7 0 15 4.5t13 9.5q20 15 35.5 45.5t22.5 55.5q5 17 5.5 34.5t0.5 38.5q-12 -7 -27.5 -24.5t-24.5 -28.5q-18 -22 -35.5 -53t-17.5 -61zM3 162q0 19 8.5 36t21 29.5t26.5 19.5t25 7t16.5 -8t0.5 -27l-13.5 -3t-7.5 -2t-6 -4l-9 -9q-20 -22 -18 -35
t16 -25.5t35.5 -29t40.5 -45.5q22 15 45 35l93 65q23 16 39 16q12 0 10 -10t-19 -20l-68 -47q-4 -2 -17.5 -11.5t-28 -21t-26 -21.5t-12.5 -13q-1 -5 3.5 -19t5.5 -36.5t-6.5 -55t-32.5 -75.5q-22 -37 -48 -54.5t-49 -17.5q-21 0 -34.5 14t-13.5 41q0 34 17.5 66t39 59
t41.5 46.5t26 28.5q-12 21 -29 36.5t-33 29t-27.5 27.5t-11.5 34z" />
    <glyph glyph-name="t" unicode="t" horiz-adv-x="116" 
d="M-281 446q0 11 17.5 23t44.5 24t60 23t65 20.5t59 16.5t41 11q16 4 24 5.5t12 4t5.5 8t4.5 18.5q8 41 18.5 56.5t20.5 15.5q8 0 13.5 -8.5t5.5 -20.5q0 -9 -1 -7.5t0 -6.5q0 -2 0.5 -5t0.5 -8q0 -10 -3 -11.5t-7 -2t-7 -3.5t-3 -15q12 0 26.5 3t25.5 5q44 8 88 14.5
t90 6.5q18 0 28.5 -6t13.5 -13.5t-2 -14t-19 -6.5q-2 8 -2.5 7.5t-9.5 1.5q-4 1 -16 1q-21 0 -56 -4.5t-71 -10.5t-65.5 -11.5t-38.5 -7.5l-20 -205q-1 -7 -0.5 -15t0.5 -16q0 -10 -1.5 -13t-1.5 -14q0 -22 1 -50.5t-1 -44.5q-1 -11 -2 -49t-1 -82.5v-85.5t1 -57
q0 -9 2 -24.5t2.5 -30.5t-2.5 -26t-13 -11t-15.5 6t-8 15t-3 19.5t-0.5 19.5q-2 27 -3 61.5t-1 70.5t0.5 70.5t0.5 61.5l3 47v43.5t1 61t2 59t3 38.5q2 10 2.5 24t1.5 24l9 93q-5 -2 -18 -4.5t-21 -4.5q-50 -12 -94 -25.5t-91 -31.5q-9 -4 -16.5 -8.5t-16.5 -8.5t-13 -5.5
t-5 -3.5t-2 -5.5t-4 -10.5q-10 -2 -17 -2q-8 0 -14.5 3t-6.5 14z" />
    <glyph glyph-name="u" unicode="u" horiz-adv-x="338" 
d="M1 122q0 16 3.5 36t10 39.5t15 37.5t17.5 30q11 12 22 12q9 0 18 -5q1 -5 2.5 -7t1.5 -9q0 -1 -9.5 -19.5t-19.5 -45t-16.5 -56.5t-0.5 -55q12 4 20.5 15.5t16.5 21.5l60 88q10 14 17 24.5t21 10.5q10 0 13.5 -10.5t4 -25.5t-0.5 -30.5t0 -25.5q5 -36 15.5 -50.5
t24.5 -14.5q17 0 36.5 14.5t37.5 32t33 32t22 14.5q6 0 11 -2.5t5 -10.5q0 -6 -7.5 -15.5t-17 -19.5t-19 -18.5t-14.5 -12.5q-20 -19 -43.5 -32.5t-46.5 -13.5q-25 0 -39 13.5t-21 34t-8.5 43t-1.5 40.5q-6 -4 -14.5 -17.5t-13.5 -21.5q-6 -10 -17 -28t-24.5 -34.5t-27 -29
t-25.5 -12.5q-17 0 -25.5 8t-12 20.5t-3.5 27v27.5z" />
    <glyph glyph-name="v" unicode="v" horiz-adv-x="215" 
d="M1 109q0 15 3.5 43t10 55.5t15.5 48t20 20.5q7 0 9 -1t7 -2q8 -17 1.5 -43t-11.5 -57q-8 -45 -12 -78.5t6 -76.5q15 4 31.5 25.5t31 49t26.5 53.5l18 39q4 7 7.5 17t8 19t10 15t12.5 6q10 0 9.5 -11t-5 -25.5t-11.5 -29.5t-11 -23q-6 -12 -19 -41t-30.5 -58t-38 -51.5
t-40.5 -22.5q-14 0 -27 13q-10 9 -14.5 23.5t-6 31t-1 32.5t0.5 29z" />
    <glyph glyph-name="w" unicode="w" horiz-adv-x="389" 
d="M-20 25q0 18 10 56t26 77t36.5 68.5t41.5 29.5q10 -2 12 -8t-0.5 -12t-6.5 -11.5t-5 -7.5q-11 -14 -24 -41t-24 -57t-18.5 -59t-7.5 -49q6 2 18 15t24.5 28.5t23.5 31t17 21.5q19 25 35 25q10 0 16 -10t10 -24t6.5 -28.5t4.5 -23.5t6 -21t9.5 -23.5t13 -19t17.5 -7.5
q17 0 34 18t31 43.5t23 52t9 42.5q0 12 -1 24t-0.5 22t3 16.5t9.5 6.5q11 0 13 -11.5t4 -23.5q5 -36 0.5 -62t-20.5 -61q-8 -15 -19 -32.5t-22 -29.5q-10 -13 -25 -26t-36 -13q-24 0 -40.5 18t-27 43t-16 52t-7.5 44q-11 -8 -25 -29t-29.5 -43t-32 -39t-32.5 -17
q-20 0 -27 19.5t-7 35.5z" />
    <glyph glyph-name="x" unicode="x" horiz-adv-x="289" 
d="M15 183q0 8 1 24.5t4.5 34t10 30.5t17.5 13q15 0 15 -13q0 -22 -2.5 -33t-4.5 -29q-1 -14 -0.5 -31.5t0.5 -32.5q5 1 13 7.5t17.5 15.5t18.5 18t15 14q6 4 10.5 7.5t10.5 8.5t18.5 16t26.5 21.5t27 18.5t21 8q5 0 9 -3t4 -8q0 -9 -6.5 -13t-15.5 -10q-36 -25 -72.5 -58.5
t-67.5 -58.5q-7 -5 -11 -9.5t-11 -9.5q3 -7 7.5 -18t12 -21.5t18 -18t24.5 -7.5q13 0 28.5 6.5t31 16t29 20t23.5 18.5l54 54q15 20 25 20q7 0 7 -11q0 -7 -11 -21t-25.5 -29t-28 -27.5t-19.5 -17.5q-29 -24 -59 -41.5t-59 -17.5q-23 0 -44 14.5t-40 50.5q-6 -4 -14 -12
t-16 -17.5t-15 -18.5t-11 -15q-15 -20 -22.5 -33t-12 -20.5t-7.5 -11t-8 -3.5q-2 0 -10 2q-2 5 -2.5 5t-0.5 5q0 14 9.5 31.5t22 34t25 30.5t19.5 23q20 24 25.5 28.5t4.5 8t-5 15t-4 50.5z" />
    <glyph glyph-name="y" unicode="y" horiz-adv-x="450" 
d="M29 -401q21 0 39.5 10t34 25.5t27.5 33.5t21 34q11 21 24.5 60.5t25.5 84t20.5 85.5t10.5 64q-12 -8 -22 -15l-98 -87q-5 -4 -8.5 -9.5t-9.5 -10.5q-24 -24 -43 -48t-38 -53q-9 -13 -19.5 -33t-16.5 -42.5t-4.5 -44.5t16.5 -38q13 -16 40 -16zM52 88q19 10 45.5 44.5
t53.5 76.5t50.5 82.5t36.5 62.5q12 20 16.5 26.5t20.5 6.5q8 0 12 -12t6 -27.5t2 -31v-23.5v-77q0 -19 -1.5 -39.5t-3 -40t-3 -36t-1.5 -27.5l143 83q2 2 8 6t13 8t14 7.5t13 3.5q9 0 9 -11q0 -6 -10 -14t-23.5 -16.5t-25.5 -15t-17 -9.5q-31 -17 -61.5 -36.5t-59.5 -39.5
q-8 -5 -8 -8.5t-2 -14.5q-5 -37 -14 -82t-21 -90.5t-27.5 -87t-33.5 -71.5q-11 -21 -27 -41.5t-35.5 -37t-42 -26.5t-47.5 -10q-37 0 -62 25t-25 70q0 41 26.5 90.5t65 96.5t81.5 87.5t76 63.5q5 5 9 7t10 7q14 12 20.5 16t7.5 18q5 38 8.5 71.5t6.5 66.5t4.5 68.5t1.5 78.5
q-3 -2 -17 -24t-30.5 -49.5l-31.5 -52.5t-21 -34q-15 -24 -36.5 -56.5t-41.5 -51.5q-19 -17 -35 -17q-17 0 -27.5 15.5t-10.5 41.5q0 16 4.5 40.5t12 47t18 39t22.5 16.5q17 0 16.5 -12t-7.5 -33.5t-15.5 -51.5t-8.5 -66z" />
    <glyph glyph-name="z" unicode="z" horiz-adv-x="425" 
d="M95 23q8 2 8.5 3.5t7.5 6.5q5 4 7 6.5t7 5.5l90 62q11 7 25 14t29 7q12 0 22 -6q9 -6 13.5 -16.5t5.5 -21.5t0.5 -21.5t-0.5 -16.5q20 15 41 33.5t38 36.5l58 53q9 6 12 6t12 -6q-1 -10 -2.5 -12t-7.5 -9q-10 -12 -25 -26.5t-31.5 -29t-32 -28t-27.5 -24.5q-5 -5 -7 -6.5
t-7 -5.5q-19 -16 -25.5 -23t-9.5 -15.5t-6.5 -23.5t-17.5 -47q-18 -42 -38 -76t-43 -69q-4 -5 -6.5 -8.5t-7.5 -8.5l-35 -47q-8 -9 -22 -24t-31 -30t-34.5 -25.5t-33.5 -10.5q-5 0 -13 2q-11 4 -15.5 14t-4.5 22t3 24.5t7 22.5q14 29 28.5 53t35.5 50q6 9 11.5 16.5
t12.5 16.5q5 3 8 6t7 8q19 23 48 49.5t50 48.5l61 51q6 6 9.5 18.5t5 26t1 25.5t-3.5 19q-19 0 -36 -9.5t-29 -17.5q-17 -10 -29.5 -18.5t-23.5 -16.5t-22.5 -17.5t-26.5 -21.5q-7 -5 -22 -17t-27 -12q-5 0 -8 3q-6 6 -3 18.5t10 26t15 25.5t11 17l70 116q8 13 17 30.5
t16.5 35.5t13 35.5t5.5 30.5q-14 -2 -29.5 -13.5t-23.5 -20.5q-8 -6 -12.5 -9.5t-11.5 -10.5q-6 -7 -10 -12t-11 -12q-29 -29 -38 -46.5t-12 -27t-8 -12.5t-26 -3q-7 11 -8 19t3.5 17t14.5 20t24 27q7 8 25 26t40.5 36.5t45.5 33t39 14.5q17 0 22 -16q4 -15 -2 -37
t-15.5 -44.5t-20.5 -42t-17 -30.5q-3 -6 -15.5 -26t-26 -42.5t-24 -42t-11.5 -23.5zM15 -345q0 -8 7 -8q13 0 33.5 17t40.5 39t37 43.5t23 30.5q9 14 23.5 37.5t29 50t26.5 51.5t16 42q-13 -9 -35.5 -29t-36.5 -32q-18 -15 -33 -32.5t-32 -35.5l-30 -37q-10 -13 -22 -29.5
t-22.5 -34.5t-17.5 -37t-7 -36z" />
    <glyph glyph-name="braceleft" unicode="{" horiz-adv-x="206" 
d="M83 660q0 34 -1 60.5t4 59.5q5 24 17.5 46t30.5 38.5t41 26t47 9.5q27 0 49 -11q9 -4 21.5 -11t13.5 -18q-4 -3 -13 -3q-10 0 -22.5 4t-26.5 4q-2 0 -4 -0.5t-4 -0.5q-31 -3 -58 -24t-37 -47q-7 -21 -9 -45t-1 -49t1.5 -49.5t-2.5 -45.5q-2 -21 -4.5 -41.5t-7.5 -39.5
q-8 -34 -16 -55t-14 -35t-9.5 -25t-4 -25t3 -35t12.5 -56q17 -64 28.5 -126.5t28.5 -121.5q6 -22 17.5 -58t25 -73.5t29 -72t29.5 -53.5q6 -8 14 -16t8 -12q0 -9 -9 -9q-13 0 -24.5 13t-19.5 23q-4 6 -7 12t-7 12q-16 27 -36 73.5t-38.5 98.5t-34.5 101t-24 82
q-8 31 -14 60.5t-14 60.5q-13 54 -15 81.5t3 47.5t15.5 43t21.5 68q8 29 12 63.5t4 70.5z" />
    <glyph glyph-name="bar" unicode="|" horiz-adv-x="198" 
d="M95 -164q-8 6 -8.5 10.5t-2.5 15.5l-5 103q0 37 1.5 70.5t1.5 71.5q0 71 3.5 140t2.5 141q0 30 2.5 68.5t2.5 70.5l9 135q0 20 4 48.5t9.5 59.5t12 59.5t12.5 48.5l4.5 13.5t9.5 7.5q19 0 16 -25q0 -6 -0.5 -16t-2.5 -17q-3 -23 -8.5 -69.5t-11 -97t-9.5 -93.5t-4 -60
l-12 -165q-1 -20 -1.5 -52.5t-2.5 -49.5q-1 -8 0 -17.5t0 -17.5t-1.5 -14.5t-0.5 -17.5q0 -22 -1 -49t-2.5 -54t-2.5 -53.5t-1 -48.5v-140q-6 -4 -14 -6z" />
    <glyph glyph-name="braceright" unicode="}" horiz-adv-x="182" 
d="M-96 841q0 8 8 17.5t20.5 18.5t27 15t28.5 6q32 0 52.5 -21.5t37 -50.5t33.5 -59t41 -47q15 -10 22.5 -19t9 -20t-2 -26.5t-10.5 -38.5q-17 -59 -28.5 -118.5t-11.5 -120.5q0 -46 -1 -103t-6 -99q-4 -32 -11 -69t-16 -74.5t-19 -74t-20 -67.5l-25 -82q-2 -6 -5.5 -17
t-8.5 -21.5t-11 -18.5t-13 -8q-6 0 -10 5t-4 7q0 13 1.5 12t5.5 6l12 39q9 30 19 73t20 89.5t18.5 91.5t12.5 78q3 20 4.5 35.5t2 29.5t1.5 27.5t3 30.5q2 14 1 33t-1 33q0 64 6.5 123.5t20.5 118.5l30 102q0 1 -5 5l-12.5 10t-14.5 12t-12 12q-10 13 -18.5 24.5t-16.5 25.5
q-21 43 -36.5 66.5t-38.5 23.5q-16 0 -38 -12q-8 -4 -11.5 -8t-5.5 -7t-3.5 -5t-5.5 -2q-10 0 -13 5.5t-3 13.5z" />
    <glyph glyph-name="asciitilde" unicode="~" horiz-adv-x="298" 
d="M55 123q0 7 5.5 20.5t14 26.5t18 23t17.5 10q13 0 23 -20q5 -8 10.5 -12t16.5 -4h20q11 0 20.5 1t18.5 5q10 5 13.5 8.5t8.5 3.5q4 0 10 -5q-1 -12 -12.5 -20t-26.5 -13.5t-30.5 -7.5t-26.5 -2q-21 0 -29.5 6.5t-20.5 14.5q-1 -3 -6 -10.5t-11 -16t-11.5 -15t-7.5 -6.5
q-9 0 -11.5 2.5t-2.5 10.5z" />
    <glyph glyph-name="exclamdown" unicode="&#xa1;" horiz-adv-x="173" 
d="M209 505q0 -21 -6.5 -52.5t-15.5 -65t-19 -64t-16 -50.5q-18 -54 -34 -106.5t-37 -109.5l-28 -66q-20 -32 -25 -44t-16 -12q-3 0 -6 0.5t-8 1.5q-4 20 4.5 37.5t17.5 46.5l28 71q16 43 28.5 77t24 66.5t23 66t24.5 75.5q7 19 13 38t11 38q11 38 12.5 53t12.5 15
q2 0 10 -2zM227 648q0 -12 -8.5 -20t-17.5 -8q-8 0 -12.5 6.5t-1.5 20.5q6 29 24 29q6 0 11 -7t5 -21z" />
    <glyph glyph-name="sterling" unicode="&#xa3;" horiz-adv-x="551" 
d="M157 367q0 12 2.5 27t3.5 26q3 23 7 58.5t9.5 72t13 69t17.5 49.5q29 49 78 49q24 0 54 -14l28 -15q5 -3 6.5 -3t1.5 -5q0 -10 -7 -10q-4 0 -7.5 2t-4.5 3q-12 6 -28 10.5t-32 4.5q-6 0 -18 -2q-26 -6 -36 -30t-16 -50q-10 -43 -13.5 -87t-8.5 -89l-7 -57q8 4 22.5 6
t31 3t33 1.5t27.5 0.5q7 0 9 -8.5t-14 -10.5q-10 -2 -19.5 -2t-19.5 -2q-20 -3 -37.5 -7t-34.5 -8q-2 -10 -3 -21.5t-3 -22.5q-8 -60 -24 -117t-44 -111q-5 -9 -9.5 -15t-9.5 -14q29 -15 69.5 -24.5t72.5 -9.5q19 0 45 2.5t53 8t51.5 12.5t40.5 16q23 14 27.5 23t11.5 9
q13 0 8 -12.5t-16 -23.5q-15 -16 -45.5 -29t-65.5 -22t-69.5 -14t-57.5 -5q-31 0 -59.5 7t-64.5 22q-16 7 -22 9.5t-8 2.5t-4 -2t-10 -4q-3 -1 -8 -1q-11 0 -20 5.5t-9 16.5q0 14 9.5 20t20.5 6t18 -4q29 44 44 96.5t24 104.5l12 77q-8 0 -23 -4.5t-30.5 -10t-28.5 -10
t-19 -4.5q-11 0 -12 1.5t-6 9.5q5 9 9 12.5t14 7.5l65 21q7 2 17 5t18 4z" />
    <glyph glyph-name="dieresis" unicode="&#xa8;" horiz-adv-x="243" 
d="M31 637q0 21 15 33.5t31 12.5q14 0 23.5 -8.5t9.5 -28.5q0 -22 -13 -32t-28 -10q-14 0 -26 8.5t-12 24.5zM139 658q0 17 12 29.5t22 12.5q24 0 33.5 -13t8.5 -29t-11.5 -29t-26.5 -13q-26 0 -32 9t-6 33z" />
    <glyph glyph-name="copyright" unicode="&#xa9;" horiz-adv-x="573" 
d="M242 37q22 0 44 9.5t43 24t39.5 31.5t33.5 31q11 11 22 26.5t20 28.5q17 27 28.5 60t12.5 66t-11 63t-43 50q-26 17 -54 25t-57 8q-26 0 -52.5 -6t-52.5 -16q-11 -4 -17.5 -8.5t-11 -10.5t-8.5 -16t-11 -27q-13 -29 -25.5 -66.5t-17.5 -77t0 -77.5t27 -69q17 -25 38 -37
t53 -12zM280 113q-25 0 -41 20t-22 40q-7 27 -5 50t10.5 44.5t21.5 41t28 38.5q12 16 34 30.5t45 14.5q19 0 31 -11q4 -4 9 -13t5 -16q0 -23 -9 -33t-20 -10q-8 0 -14.5 6t-7.5 18q-16 -10 -31.5 -29t-28 -39.5t-20 -40t-7.5 -31.5q0 -13 7 -29t18 -16q17 0 26 5t15 11.5
t11.5 11.5t14.5 5q5 0 8 -1q2 -6 2.5 -6t0.5 -5t-6.5 -14.5t-18 -18.5t-26 -16t-30.5 -7zM24 296q0 23 11.5 43.5t29 38.5t38 32.5t37.5 25.5q11 7 20.5 11.5t20.5 11.5q6 3 9.5 6.5t9.5 7.5q8 5 11 5q2 0 3 -0.5t4 -0.5h4q4 1 12 4.5t11 4.5q17 6 30 9.5t25 5t25 2t30 0.5
q33 0 65 -12t58 -33.5t42 -50.5t16 -63q0 -118 -80 -209l-17 -20q-13 -15 -34.5 -34.5t-47 -37t-53.5 -29.5t-54 -12h-19q-33 0 -61.5 21.5t-42.5 41.5q-26 38 -33.5 82t-2.5 88.5t20 87.5t34 80q-6 -1 -15 -7t-18.5 -13.5t-18 -15t-13.5 -12.5q-14 -13 -20.5 -25t-10 -21
t-6 -14t-8.5 -5q-3 0 -7 0.5t-4 5.5z" />
    <glyph glyph-name="plusminus" unicode="&#xb1;" horiz-adv-x="286" 
d="M65 182q0 6 7.5 10t17.5 6.5t20.5 4.5t16.5 3h7q4 0 5 1t4 6q4 8 5.5 20.5t14.5 21.5q8 -2 10 -6.5t1 -10.5t-3.5 -13.5t-3.5 -15.5h15q8 0 14.5 -0.5t13.5 -2.5q20 -5 23 -19t-7 -14q-6 0 -7.5 1.5t-2.5 4t-3 4t-9 1.5h-30q-15 0 -16 -4.5t-6 -21.5l-15 -62
q-2 -8 -4.5 -16t-10.5 -8q-6 0 -7 6t0.5 15t4 19t3.5 18l10 49q-17 0 -32.5 -5t-24.5 -5q-11 0 -11 13zM92 -3q-17 0 -34 3q-15 3 -16 15t22 12h7l67 -5q10 0 16.5 -0.5t17.5 -1.5q6 0 16 -1.5t12 -6.5q4 -9 -2.5 -12t-14.5 -3h-91z" />
    <glyph glyph-name="questiondown" unicode="&#xbf;" horiz-adv-x="405" 
d="M293 275q18 0 31 -13t21 -32t12 -40t4 -37q0 -60 -34 -112.5t-81 -87.5q-22 -16 -55.5 -33t-65.5 -17q-25 0 -44 13q-13 8 -23 23q-22 37 -20 74t16 76q17 49 37 83.5t40 74.5l123 255q6 18 6.5 22t9.5 9l2 -1v-1q1 0 1.5 0.5t2.5 -0.5q3 -12 -2.5 -31.5t-14.5 -41.5
t-18.5 -42t-15.5 -33l-64 -137q-4 -10 -11.5 -24t-15.5 -28.5t-16 -28.5t-13 -25q-9 -19 -19 -43t-15.5 -48.5t-4.5 -49t13 -44.5q16 -24 46 -24q29 0 63 19.5t64 50.5t50 68.5t20 74.5q0 11 -2 28.5t-7 34.5t-13 29.5t-21 13.5h-4h-3l-1 1l-6 2q1 14 9 18t19 4zM319 624
q0 -7 -5.5 -10.5t-12.5 -3.5q-8 0 -13.5 5t-3.5 17q1 6 7.5 12t13.5 6q5 0 9.5 -5.5t4.5 -20.5z" />
    <glyph glyph-name="Adieresis" unicode="&#xc4;" horiz-adv-x="620" 
d="M46 -267q16 0 32 11.5t30 28t25 34t17 30.5q29 58 38 98t16 52q-4 -1 -12.5 -7t-17.5 -13t-16.5 -14.5l-11.5 -11.5q-17 -17 -39.5 -41t-41.5 -51.5t-30 -56.5t-5 -56q6 -1 8 -2t8 -1zM534 214q4 14 6 31t4 32q4 32 11 71.5t14.5 81t15.5 81t15 72.5q3 14 7.5 37t7 48
t1.5 48t-9 36q-25 -1 -55 -30t-58.5 -68t-52.5 -80t-37 -66l-41 -88q-10 -24 -21.5 -54t-22 -62.5t-19.5 -63.5t-16 -56q-2 -8 -5.5 -22.5t-7.5 -29.5t-7 -28.5t-4 -21.5q9 3 17.5 9t16.5 11l98 54q23 11 51 24t53 22q10 2 20 5t18 7zM40 -301q-23 0 -36.5 17.5t-13.5 41.5
q1 33 20.5 70t47 71.5t58.5 64.5t55 50q15 13 24.5 19.5t14.5 11.5t8 10.5t5 16.5q17 77 40.5 160.5t55 165t72 157t89.5 135.5q8 11 22 27t31 31t35.5 25.5t35.5 10.5q19 0 28.5 -10.5t13.5 -25t4 -30.5v-28q0 -24 -8.5 -77.5t-19.5 -115t-21.5 -120t-15.5 -91.5
q-2 -16 -4.5 -29t-2.5 -30q17 0 30.5 3t32.5 3q14 0 20.5 -6t7.5 -12.5t-3.5 -12.5t-12.5 -6q-7 0 -9 1t-2 1.5t-0.5 1.5t-4.5 1q-5 0 -15.5 -1t-30.5 -5q-14 -3 -17 -6t-5 -19l-48 -519q0 -23 -1.5 -44t-1.5 -47q0 -23 1.5 -39t1.5 -26t-4 -15t-15 -5t-16.5 18.5t-7.5 43
t-1.5 48.5t1.5 35q0 12 1.5 17.5t1.5 19.5q0 13 1 32.5t2.5 41l3 43t2.5 38.5l31 292q2 20 4.5 36t2.5 37q-14 -7 -37 -14.5t-50 -21.5l-48 -24t-33 -17t-31 -18.5t-43 -27.5q-2 -1 -7.5 -4.5t-11.5 -8t-11 -8t-5 -4.5q-3 -3 -9.5 -28.5t-17.5 -62t-27 -78.5t-38.5 -78
t-52 -59.5t-66.5 -23.5zM501 861q0 21 15 33.5t31 12.5q14 0 23.5 -8.5t9.5 -28.5q0 -22 -13 -32t-28 -10q-14 0 -26 8.5t-12 24.5zM609 882q0 17 12 29.5t22 12.5q24 0 33.5 -13t8.5 -29t-11.5 -29t-26.5 -13q-26 0 -32 9t-6 33z" />
    <glyph glyph-name="Odieresis" unicode="&#xd6;" horiz-adv-x="607" 
d="M81 321q1 12 8.5 31.5t17 40.5t18.5 40.5t14 30.5q1 2 2 8t3 12t6.5 11t12.5 5q21 0 16 -25.5t-19 -61t-30 -72t-16 -58.5q8 -2 14.5 -7t12.5 -10q19 -12 34 -18t29.5 -10t30 -6.5t35.5 -5.5q11 -1 28.5 -1t34.5 -1t29.5 -5t12.5 -13q0 -7 -13 -9.5t-33 -2.5q-15 0 -31 1
t-30.5 2.5t-26 3t-16.5 2.5q-29 5 -49 13t-34 15.5t-23 14t-16 7.5q-1 -10 -4.5 -20.5t-5.5 -21.5q-6 -29 -11.5 -65.5t-8.5 -65.5q-2 -19 -3 -31.5t-1 -23t-0.5 -20.5t-1.5 -22q-3 -31 0 -68.5t11.5 -74.5t24 -70.5t37.5 -55.5q1 -1 1 -2q1 0 1.5 -1t1.5 -1
q20 -18 41.5 -30t53.5 -12q57 0 106 37.5t85.5 93t60 117.5t30.5 112q2 17 5 39t5 45.5t3 45.5t-1 39q-1 10 -1 28t-2 29q-4 35 -9 63t-12 53.5t-16.5 51t-24.5 56.5q-16 35 -42.5 71.5t-60.5 66.5t-73.5 49t-81.5 19q-54 0 -92.5 -34.5t-61.5 -80.5q-13 -29 -20.5 -60.5
t-6.5 -63t10.5 -61t30.5 -55.5q4 -5 3.5 -5.5t7.5 -2.5zM0 465q0 29 8.5 60.5t24 61t36.5 55.5t45 42q29 21 51.5 24.5t56.5 3.5q38 0 75.5 -17.5t71.5 -44.5t62 -59.5t46 -63.5q39 -67 60 -143t25.5 -154.5t-6.5 -157.5t-35 -153q-15 -45 -41 -94.5t-63 -90.5t-82.5 -68
t-99.5 -27q-49 0 -91 28t-72 83q-25 47 -36 106.5t-12 122.5t7 125t20 113q2 10 4 18.5t4 17.5q4 17 6.5 22.5t1.5 9.5t-7 9.5t-18 20.5q-26 35 -34 71.5t-8 78.5zM156 776q0 21 15 33.5t31 12.5q14 0 23.5 -8.5t9.5 -28.5q0 -22 -13 -32t-28 -10q-14 0 -26 8.5t-12 24.5z
M264 797q0 17 12 29.5t22 12.5q24 0 33.5 -13t8.5 -29t-11.5 -29t-26.5 -13q-26 0 -32 9t-6 33z" />
    <glyph glyph-name="Udieresis" unicode="&#xdc;" horiz-adv-x="712" 
d="M11 -65q0 66 9.5 131.5t20.5 123.5q24 134 65 272.5t102 259.5q8 16 20.5 34t33.5 18q15 0 15 -15t-8.5 -26.5t-14.5 -25.5q-16 -34 -34 -81t-35 -97.5t-31 -98.5t-22 -85q-14 -63 -27.5 -120.5t-23.5 -115.5t-16 -119t-6 -130q0 -27 4 -68.5t15.5 -81t32 -68t54.5 -28.5
q21 0 37 4.5t29.5 13.5t25.5 22t27 30q42 50 76 117.5t63 127.5q5 8 7.5 14t6.5 14q11 23 27.5 61t36.5 83.5t40.5 94t38.5 94t32.5 84t21.5 62.5q6 18 9 33.5t24 15.5q3 0 8.5 -5.5t5.5 -11.5q0 -9 -2 -25.5t-4 -35.5t-4.5 -37t-4.5 -29l-27 -332q-4 -27 -2.5 -70.5
t5.5 -90.5t9.5 -91t9.5 -72q2 -16 5.5 -32t5 -28.5t-0.5 -20t-10 -7.5q-20 0 -25 21t-10 50q-7 44 -12.5 72.5t-9 49.5t-6 39.5t-4 41.5t-2 55t-0.5 81q0 76 7.5 137t12.5 129q-1 -2 -1.5 -2t-2.5 -3l-8 -19q-3 -7 -5 -12.5t-5 -12.5q-5 -14 -10 -25.5t-11 -25.5l-156 -346
q-17 -35 -41.5 -79t-55 -83t-68 -65.5t-80.5 -26.5q-42 0 -74.5 29t-46.5 64q-15 36 -22.5 68t-10.5 64t-3 65.5v71.5zM403 815q0 21 15 33.5t31 12.5q14 0 23.5 -8.5t9.5 -28.5q0 -22 -13 -32t-28 -10q-14 0 -26 8.5t-12 24.5zM511 836q0 17 12 29.5t22 12.5q24 0 33.5 -13
t8.5 -29t-11.5 -29t-26.5 -13q-26 0 -32 9t-6 33z" />
    <glyph glyph-name="germandbls" unicode="&#xdf;" horiz-adv-x="546" 
d="M83 61q0 68 15 144t40.5 151.5t59 146.5t70.5 128q8 11 27.5 40t44.5 59.5t51.5 54t47.5 23.5q15 0 23 -11q9 -11 11 -29.5t0 -38.5t-6.5 -38.5t-8.5 -30.5l-15 -36q-16 -41 -38 -81t-47 -76l-22 -28l-34 -40q-9 -11 -21.5 -23.5l-24.5 -24.5t-21.5 -22t-12.5 -15l54 14
q14 3 28.5 5t30.5 2q29 0 55 -10t38 -37q16 -35 7 -70t-30 -66.5t-47.5 -57.5t-45.5 -44l-86 -70q-3 -3 -16 -13t-28 -22t-28 -21.5t-17 -10.5q0 -15 7 -51t16 -75t18 -71t13 -39q6 -8 9.5 -6.5t3.5 -7.5q0 -10 -4 -17t-12 -7q-11 0 -28 22t-34 82q-7 23 -10.5 39.5t-6.5 31
t-6 29.5t-8 35l-104 -76q-5 -3 -20.5 -15t-33.5 -24.5t-33 -22.5t-18 -10q-6 0 -9 1t-3 9q0 5 15 18.5t34 28t36 26.5t21 15q11 9 25.5 20.5t29.5 23.5t29.5 23t24.5 18q0 31 -3 68.5t-3 79.5zM130 -48q6 0 17 8t23.5 18.5t24 20.5t17.5 14q16 13 36 29.5t39.5 34.5
t37.5 36.5t31 34.5q25 31 35.5 54t10.5 60q0 17 -17.5 30t-35.5 13h-30t-24.5 -1.5t-24.5 -4.5t-30 -9q-29 -10 -45 -17.5t-27 -7.5q-9 0 -17 5q-9 -41 -14 -69t-7.5 -53.5t-2.5 -53.5v-68q0 -22 1.5 -37.5t1.5 -36.5zM160 300q5 3 18.5 15.5t28.5 28t28.5 30.5t19.5 22
l44 50q22 27 49.5 70t49.5 90.5t34.5 93t4.5 78.5q-12 -1 -26.5 -12.5t-28 -26.5t-24.5 -30t-18 -24q-23 -31 -49 -74.5t-49.5 -91.5t-42.5 -95.5t-29 -86.5q-4 -10 -7 -18.5t-3 -18.5z" />
    <glyph glyph-name="adieresis" unicode="&#xe4;" horiz-adv-x="290" 
d="M0 101q0 21 10.5 52.5t28 61t41 50t49.5 20.5q18 0 31 -9t20 -19.5t6.5 -19.5t-10.5 -9q-11 0 -21 11.5t-24 11.5q-11 0 -26.5 -13t-37.5 -51q-10 -16 -18.5 -41.5t-8.5 -50.5q2 2 1.5 1t3.5 4l8 12q8 12 18.5 31.5t21 38t20 32.5t14.5 14q13 0 17.5 -7.5t5.5 -19.5
t1 -27t3 -29q6 -27 18.5 -39.5t28.5 -12.5q28 0 62 34q14 13 19.5 21.5t16.5 19.5q7 10 18 10q6 0 9 -4.5t1 -14t-11.5 -23.5t-28.5 -32l-30 -24q-29 -20 -56 -20q-19 0 -34 9t-25.5 22.5t-16.5 30.5t-6 33q-7 -5 -16 -22.5t-19.5 -36t-21.5 -33.5t-22 -15q-28 0 -34 13
t-6 40zM30 343q0 21 15 33.5t31 12.5q14 0 23.5 -8.5t9.5 -28.5q0 -22 -13 -32t-28 -10q-14 0 -26 8.5t-12 24.5zM138 364q0 17 12 29.5t22 12.5q24 0 33.5 -13t8.5 -29t-11.5 -29t-26.5 -13q-26 0 -32 9t-6 33z" />
    <glyph glyph-name="odieresis" unicode="&#xf6;" horiz-adv-x="176" 
d="M50 23q15 4 27 27t17 51t2.5 53t-15.5 34q-3 -11 -11 -31.5t-15.5 -44.5t-10 -48t5.5 -41zM0 57q0 17 8.5 52t23 70t32.5 61.5t36 26.5q10 0 14 -9t2 -15q-2 -5 -7.5 -10t-9.5 -11q2 -7 10 -15t15.5 -23t10.5 -38.5t-5 -62.5q-11 -52 -35 -78t-47 -26q-20 0 -34 19.5
t-14 58.5zM3 335q0 21 15 33.5t31 12.5q14 0 23.5 -8.5t9.5 -28.5q0 -22 -13 -32t-28 -10q-14 0 -26 8.5t-12 24.5zM111 356q0 17 12 29.5t22 12.5q24 0 33.5 -13t8.5 -29t-11.5 -29t-26.5 -13q-26 0 -32 9t-6 33z" />
    <glyph glyph-name="divide" unicode="&#xf7;" horiz-adv-x="357" 
d="M74 201q2 6 12.5 8.5t25.5 2.5t32 -1.5t33 -4t29 -4.5t20 -2q5 -1 17 -2t23 -3.5t18.5 -7t4.5 -12.5q-2 -8 -10 -8q-3 0 -6.5 0.5t-8.5 0.5l-75 1h-3q-11 0 -25.5 -1t-29.5 -1q-26 0 -45.5 6t-11.5 28zM199 289q5 12 14 17.5t20 5.5q14 0 25 -8.5t6 -22.5
q-5 -16 -15 -22.5t-21 -6.5q-14 0 -24.5 10.5t-4.5 26.5zM160 103q2 8 14 16t22 8q4 0 6 -1q10 -3 8.5 -7.5t3.5 -15.5q10 -20 -2 -36.5t-28 -16.5q-21 0 -27 32q-2 8 -1.5 9.5t4.5 11.5z" />
    <glyph glyph-name="udieresis" unicode="&#xfc;" horiz-adv-x="338" 
d="M1 122q0 16 3.5 36t10 39.5t15 37.5t17.5 30q11 12 22 12q9 0 18 -5q1 -5 2.5 -7t1.5 -9q0 -1 -9.5 -19.5t-19.5 -45t-16.5 -56.5t-0.5 -55q12 4 20.5 15.5t16.5 21.5l60 88q10 14 17 24.5t21 10.5q10 0 13.5 -10.5t4 -25.5t-0.5 -30.5t0 -25.5q5 -36 15.5 -50.5
t24.5 -14.5q17 0 36.5 14.5t37.5 32t33 32t22 14.5q6 0 11 -2.5t5 -10.5q0 -6 -7.5 -15.5t-17 -19.5t-19 -18.5t-14.5 -12.5q-20 -19 -43.5 -32.5t-46.5 -13.5q-25 0 -39 13.5t-21 34t-8.5 43t-1.5 40.5q-6 -4 -14.5 -17.5t-13.5 -21.5q-6 -10 -17 -28t-24.5 -34.5t-27 -29
t-25.5 -12.5q-17 0 -25.5 8t-12 20.5t-3.5 27v27.5zM31 337q0 21 15 33.5t31 12.5q14 0 23.5 -8.5t9.5 -28.5q0 -22 -13 -32t-28 -10q-14 0 -26 8.5t-12 24.5zM139 358q0 17 12 29.5t22 12.5q24 0 33.5 -13t8.5 -29t-11.5 -29t-26.5 -13q-26 0 -32 9t-6 33z" />
    <glyph glyph-name="endash" unicode="&#x2013;" horiz-adv-x="501" 
d="M90 152q-5 0 -10.5 4t-5.5 10t7.5 12t28.5 10q2 0 27.5 2t63.5 4t82 3.5t81 1.5t61.5 -2.5t24.5 -7.5q0 -6 -6 -10t-14.5 -6.5t-18 -4t-17.5 -3.5q-4 -1 -28 -2.5t-56.5 -3t-70 -2.5t-70 -2.5t-54.5 -2t-25 -0.5z" />
    <glyph glyph-name="emdash" unicode="&#x2014;" horiz-adv-x="629" 
d="M80 152q-5 0 -10.5 4t-5.5 10t7.5 12t28.5 10q2 0 38.5 2t90.5 4t116.5 3.5t115.5 1.5t87.5 -2.5t34.5 -7.5q0 -6 -6 -10t-14.5 -6.5t-18 -4t-17.5 -3.5q-4 -1 -38.5 -2.5t-83 -3t-104.5 -2.5t-104 -2.5t-81 -2t-36 -0.5z" />
    <glyph glyph-name="quoteleft" unicode="&#x2018;" horiz-adv-x="156" 
d="M80 477q8 -3 9 -8.5t-2 -11t-9.5 -9.5t-12.5 -4q-11 2 -16 9.5t-4 13.5q1 10 11.5 36.5t25 54t29.5 48.5t24 20q15 -2 7 -14t-17 -26q-5 -9 -12.5 -23.5t-14.5 -30.5t-12 -31t-6 -24z" />
    <glyph glyph-name="quoteright" unicode="&#x2019;" horiz-adv-x="209" 
d="M136 577q-9 2 -10.5 7.5t1.5 11.5t9 10.5t12 4.5q11 0 16.5 -7.5t5.5 -13.5q0 -10 -8.5 -37.5t-20.5 -56t-25.5 -50.5t-22.5 -22q-15 0 -8 13t15 28q5 9 11 24t11.5 31.5t9.5 32t4 24.5z" />
    <glyph glyph-name="quotesinglbase" unicode="&#x201a;" horiz-adv-x="165" 
d="M64 75q-9 2 -10.5 7.5t1.5 11.5t9 10.5t12 4.5q11 0 16.5 -7.5t5.5 -13.5q0 -10 -8.5 -37.5t-20.5 -56t-25.5 -50.5t-22.5 -22q-15 0 -8 13t15 28q5 9 11 24t11.5 31.5t9.5 32t4 24.5z" />
    <glyph glyph-name="quotedblleft" unicode="&#x201c;" horiz-adv-x="281" 
d="M80 476q8 -3 9 -8.5t-2 -11t-9.5 -9.5t-12.5 -4q-11 2 -16 9.5t-4 13.5q1 10 11.5 36.5t25 54t29.5 48.5t24 20q15 -2 7 -14t-17 -26q-5 -9 -12.5 -23.5t-14.5 -30.5t-12 -31t-6 -24zM216 476q8 -3 9 -8.5t-2 -11t-9.5 -9.5t-12.5 -4q-11 2 -16 9.5t-4 13.5
q1 10 11.5 36.5t25 54t29.5 48.5t24 20q15 -2 7 -14t-17 -26q-5 -9 -12.5 -23.5t-14.5 -30.5t-12 -31t-6 -24z" />
    <glyph glyph-name="quotedblright" unicode="&#x201d;" horiz-adv-x="303" 
d="M126 571q-9 2 -10.5 7.5t1.5 11.5t9 10.5t12 4.5q11 0 16.5 -7.5t5.5 -13.5q0 -10 -8.5 -37.5t-20.5 -56t-25.5 -50.5t-22.5 -22q-15 0 -8 13t15 28q5 9 11 24t11.5 31.5t9.5 32t4 24.5zM247 568q-9 2 -10.5 7.5t1.5 11.5t9 10.5t12 4.5q11 0 16.5 -7.5t5.5 -13.5
q0 -10 -8.5 -37.5t-20.5 -56t-25.5 -50.5t-22.5 -22q-15 0 -8 13t15 28q5 9 11 24t11.5 31.5t9.5 32t4 24.5z" />
    <glyph glyph-name="quotedblbase" unicode="&#x201e;" horiz-adv-x="285" 
d="M66 67q-9 2 -10.5 7.5t1.5 11.5t9 10.5t12 4.5q11 0 16.5 -7.5t5.5 -13.5q0 -10 -8.5 -37.5t-20.5 -56t-25.5 -50.5t-22.5 -22q-15 0 -8 13t15 28q5 9 11 24t11.5 31.5t9.5 32t4 24.5zM184 67q-9 2 -10.5 7.5t1.5 11.5t9 10.5t12 4.5q11 0 16.5 -7.5t5.5 -13.5
q0 -10 -8.5 -37.5t-20.5 -56t-25.5 -50.5t-22.5 -22q-15 0 -8 13t15 28q5 9 11 24t11.5 31.5t9.5 32t4 24.5z" />
    <glyph glyph-name="ellipsis" unicode="&#x2026;" horiz-adv-x="417" 
d="M169 29q0 15 9.5 22.5t20.5 7.5t18.5 -7t5.5 -21t-10 -21t-18 -7t-18 7t-8 19zM313 32q0 15 9.5 22.5t20.5 7.5t18.5 -7t5.5 -22q-2 -14 -10 -21t-17 -7q-11 0 -19 7t-8 20zM33 34q0 15 9.5 22.5t20.5 7.5t18.5 -7t5.5 -21t-10 -21t-18 -7t-18 7t-8 19z" />
    <glyph glyph-name="Euro" unicode="&#x20ac;" horiz-adv-x="459" 
d="M184 318q-8 -2 -14 -5t-12 -5l-36 -16t-35 -17q-15 -6 -22 -6q-11 0 -12 7.5t4 13.5q6 8 20 15l24 12q12 6 25 10.5t26 9.5q14 5 21 7t11 4t5 6t3 13q12 66 39.5 136.5t69.5 122.5q7 10 16.5 19t18.5 17q13 11 30.5 19t37.5 8q8 0 16.5 -1.5t16.5 -6.5q13 -7 20 -15.5
t14 -22.5q3 -5 7.5 -14t7.5 -19.5t3 -20t-7 -15.5q-10 3 -14.5 16t-11.5 28t-18.5 26.5t-35.5 11.5q-18 0 -35 -12.5t-31 -30.5t-25.5 -37.5t-18.5 -34.5q-31 -69 -40 -114.5t-16 -60.5q8 2 29 9t40 7q23 0 27 -16q-3 -4 -5 -8q-8 0 -8.5 1t-7.5 1q-4 0 -15.5 -3t-25 -7
t-24.5 -8t-14 -6l-14 -100l66 19q1 0 9.5 2.5t21 5t26.5 4.5t26 2t20 -3t8 -11q0 -10 -8 -10q-4 0 -8 1t-9 1q-20 0 -42.5 -6.5t-39.5 -11.5l-57 -19l-9 -3t-3.5 -5t-0.5 -13v-27q0 -11 2 -35t6 -48.5t10.5 -43t15.5 -18.5q8 0 22.5 19t29 44t27 49.5t17.5 35.5q4 10 5 15
t1 7.5t0.5 4t2.5 4.5q3 3 6 3q5 0 8.5 -5.5t3.5 -12.5q0 -9 -6.5 -26t-15 -35.5t-16.5 -34.5t-12 -23q-5 -10 -13 -25t-18 -29t-21.5 -24t-24.5 -10q-22 0 -36.5 27.5t-22.5 63.5t-11 71t-3 50q-8 -1 -22 -8t-21 -11q-6 -4 -19.5 -12.5t-19.5 -8.5q-7 0 -9 3.5t-1.5 8.5
t3.5 9.5t4 5.5q5 6 16.5 13.5t24.5 14.5t25 11.5t19 5.5q0 9 0.5 23.5t1.5 30t3 28.5t4 18z" />
    <glyph glyph-name="minus" unicode="&#x2212;" horiz-adv-x="549" 
d="M81 152q-5 0 -10.5 4t-5.5 10t7.5 12t28.5 10q2 0 32.5 2t75.5 4t96.5 3.5t95.5 1.5q45 0 73.5 -2.5t28.5 -7.5q0 -6 -6 -10t-14.5 -6.5t-18 -4t-17.5 -3.5q-4 -1 -32.5 -2.5t-68 -3t-85 -2.5t-84.5 -2.5t-66 -2t-30 -0.5z" />
    <glyph glyph-name="notequal" unicode="&#x2260;" horiz-adv-x="464" 
d="M219 211q4 20 11.5 46.5t16.5 54t18.5 52.5t18.5 41l6 9t7 3t8 -1q4 -14 0 -27l-8 -26q-2 -7 -9 -29.5t-14.5 -47.5t-14 -45.5t-6.5 -24.5q11 2 24.5 3t26.5 3q19 2 37.5 2.5t38.5 0.5q14 0 24.5 -3t10.5 -15q0 -8 -8 -8q-4 0 -9 0.5t-13 0.5h-7q-14 -1 -24 -1t-23 -2
l-89 -13q0 -3 -2 -10.5t-4 -15.5t-4.5 -15t-3.5 -9q14 3 27.5 5.5t27.5 5.5q32 7 54 7q18 0 25.5 -4t8.5 -9t-2.5 -9t-6.5 -5t-10 -1h-12h-7q-5 -1 -12 -2t-13 -2q-11 -3 -24 -6l-26 -6q-13 -4 -26 -7t-16 -10l-26 -95q-3 -13 -6.5 -24t-6.5 -24q-1 -5 -2 -12t-2 -13
q-2 -9 -2.5 -13t-1 -5.5t-1.5 -1.5t-4 -1q-2 -2 -0.5 -2.5t0.5 -0.5h-1q-3 0 -5 1q-9 1 -9.5 15.5t2.5 32t7.5 34t5.5 22.5q5 22 10.5 41.5t10.5 40.5q-4 -2 -14.5 -6t-22 -8.5t-22 -7.5t-14.5 -3q-10 0 -15.5 5.5t-1.5 13.5t19.5 18t46.5 19q20 6 26.5 6.5t10.5 10.5
q3 11 5 22.5t7 20.5l-64 -14q-9 -2 -26.5 -7.5t-31.5 -5.5q-8 0 -13 3.5t-3 11.5q2 11 22 19.5t45 14.5t48 9t32 3z" />
    <glyph glyph-name="lessequal" unicode="&#x2264;" horiz-adv-x="361" 
d="M68 296q0 6 4 14.5t7 13.5q7 10 31 27.5t50.5 35t49 30.5t27.5 13q11 0 12 -7.5t-1 -12.5q-3 -5 -10 -12t-15.5 -13.5t-16.5 -13t-13 -9.5q-31 -24 -48 -36.5t-22.5 -22t-0.5 -20t17 -28.5q3 -4 19 -27t31 -48t22 -45.5t-8 -20.5q-12 0 -14 6t-9 16l-86 108
q-8 8 -17 22.5t-9 29.5zM41 -5q-10 0 -17 7.5t-1 16.5q3 5 13.5 8t22.5 5t24 3.5t18 2.5l124 15q12 2 30.5 3t32.5 4q2 1 6.5 2t9.5 1q10 0 10 -9q0 -7 -6 -11.5t-14.5 -7t-18.5 -4t-19 -3.5q-17 -3 -34.5 -6.5t-33.5 -5.5q-12 -2 -32.5 -5.5t-42 -7t-41 -6t-31.5 -2.5z" />
    <glyph glyph-name="greaterequal" unicode="&#x2265;" horiz-adv-x="239" 
d="M60 410q0 14 18 14q5 0 15 -2q5 -1 15 -1q8 0 16 0.5t16 0.5q30 -1 40.5 -15t9 -32.5t-10 -39t-16.5 -35.5q-17 -35 -33 -70.5t-30 -71.5q-4 -9 -7 -17.5t-7 -17.5q-7 -17 -17 -17q-9 0 -9 6q0 9 5.5 27.5t12 38.5t13.5 38.5t10 27.5q4 9 10.5 27.5t13 39t11 39t4.5 28.5
q-9 2 -22.5 4t-26.5 5t-22 8.5t-9 14.5zM-60 3q0 14 19 21.5t43.5 11t48 4t31.5 0.5q19 0 36.5 -0.5t32.5 -0.5q11 0 24 -3.5t13 -16.5q0 -8 -10 -8q-3 0 -6.5 0.5t-6.5 0.5l-66 -3q-5 -1 -13.5 -1t-15.5 -2q-16 -1 -30 -3q-20 -3 -41.5 -8.5t-37.5 -5.5q-21 0 -21 14z" />
    <glyph glyph-name="uni0000.1" horiz-adv-x="0" 
 />
    <glyph glyph-name="uni000D.1" horiz-adv-x="259" 
 />
    </font>
</defs>
</svg>
